<svg width="88" height="88" viewBox="0 0 88 88" fill="none" xmlns="http://www.w3.org/2000/svg">
<g clip-path="url(#clip0_3712_213)">
<path d="M44.0803 88H43.9202C38.0622 88.0059 32.2634 86.8301 26.8704 84.543C21.6404 82.338 16.8898 79.1353 12.885 75.1133C8.86159 71.1085 5.6587 66.3568 3.45533 61.125C1.15591 55.7095 -0.0196034 49.8834 0.000247277 44C-0.0180992 38.1156 1.158 32.2887 3.45728 26.8721C5.66058 21.6412 8.8635 16.8903 12.887 12.8867C16.8902 8.86242 21.6416 5.65939 26.8733 3.45706C32.2581 1.1695 38.05 -0.00639244 43.9006 2.61355e-05H44.0999C49.9494 -0.00585075 55.7403 1.17003 61.1243 3.45706C66.3552 5.66036 71.106 8.86328 75.1096 12.8867C79.1332 16.8907 82.3366 21.6414 84.5413 26.8721C86.8405 32.2888 88.0172 38.1155 88.0002 44C88.0175 49.8835 86.8411 55.7093 84.5422 61.125C82.3366 66.3552 79.1333 71.1057 75.1106 75.1104C71.107 79.1338 66.3562 82.3368 61.1252 84.5401C55.7346 86.8296 49.937 88.0065 44.0803 88ZM44.0002 4.00003C33.401 4.03063 23.2451 8.25519 15.7502 15.75C8.25542 23.2449 4.03085 33.4008 4.00025 44C4.02954 54.5997 8.25318 64.7569 15.7483 72.252C23.2434 79.7471 33.4006 83.9707 44.0002 84C54.6003 83.972 64.7578 79.7484 72.2532 72.253C79.7486 64.7576 83.9723 54.6001 84.0002 44C83.971 33.4004 79.7473 23.2432 72.2522 15.7481C64.7571 8.25296 54.5999 4.02932 44.0002 4.00003Z" fill="url(#paint0_linear_3712_213)"/>
<g clip-path="url(#clip1_3712_213)">
<path d="M42.0346 31.7991L40.9231 29.8739C40.3829 28.9384 39.1823 28.6166 38.2469 29.1568L37.875 29.3715C37.5774 29.1677 37.265 28.9871 36.9404 28.8311V28.4024C36.9404 27.3222 36.0615 26.4434 34.9814 26.4434H32.7583C31.678 26.4434 30.7992 27.3223 30.7992 28.4024V28.8311C30.4745 28.9871 30.1622 29.1677 29.8647 29.3715L29.4928 29.1568C28.5572 28.6167 27.3567 28.9383 26.8166 29.8739L25.7051 31.7991C25.1649 32.7347 25.4867 33.9352 26.4222 34.4753L26.7932 34.6895C26.7794 34.87 26.7725 35.0505 26.7725 35.2296C26.7725 35.4087 26.7794 35.5891 26.7932 35.7697L26.4222 35.9839C25.4866 36.524 25.1649 37.7245 25.7051 38.6601L26.8166 40.5853C27.0782 41.0385 27.5007 41.3626 28.0062 41.498C28.5116 41.6335 29.0397 41.564 29.4928 41.3023L29.8647 41.0877C30.1622 41.2915 30.4746 41.4721 30.7992 41.628V42.0566C30.7992 43.1369 31.6781 44.0157 32.7583 44.0157H34.9814C36.0616 44.0157 36.9404 43.1368 36.9404 42.0566V41.628C37.2651 41.4721 37.5774 41.2914 37.875 41.0877L38.2469 41.3024C39.1825 41.8425 40.383 41.5209 40.9231 40.5854L42.0346 38.6602C42.5747 37.7246 42.253 36.5241 41.3175 35.984L40.9465 35.7698C40.9603 35.5893 40.9672 35.4088 40.9672 35.2297C40.9672 35.0506 40.9603 34.8701 40.9465 34.6896L41.3175 34.4754C42.253 33.9353 42.5747 32.7347 42.0346 31.7991ZM39.4412 34.4013C39.4818 34.6769 39.5024 34.9556 39.5024 35.2297C39.5024 35.5038 39.4817 35.7825 39.4412 36.0581C39.3975 36.3553 39.5395 36.649 39.7996 36.7991L40.5851 37.2526C40.8211 37.389 40.9023 37.6918 40.766 37.9278L39.6545 39.853C39.5183 40.0891 39.2154 40.1703 38.9793 40.034L38.1924 39.5797C37.9319 39.4293 37.606 39.4534 37.3704 39.6406C36.9355 39.9863 36.4538 40.2648 35.9387 40.4685C35.6592 40.579 35.4755 40.849 35.4755 41.1496V42.0568C35.4755 42.3294 35.2537 42.5511 34.9813 42.5511H32.7582C32.4857 42.5511 32.264 42.3293 32.264 42.0568V41.1496C32.264 40.849 32.0804 40.579 31.8008 40.4685C31.2857 40.2647 30.8039 39.9862 30.3691 39.6405C30.2365 39.5352 30.0753 39.4814 29.9132 39.4814C29.7873 39.4814 29.6609 39.5139 29.5471 39.5796L28.7602 40.0339C28.6459 40.0999 28.5127 40.1174 28.3852 40.0833C28.2576 40.0491 28.1511 39.9673 28.085 39.853L26.9736 37.9277C26.8373 37.6917 26.9186 37.3888 27.1546 37.2525L27.9399 36.799C28.2 36.6488 28.3421 36.3552 28.2983 36.0581C28.2577 35.7823 28.2372 35.5036 28.2372 35.2296C28.2372 34.9556 28.2577 34.6769 28.2983 34.4011C28.3421 34.104 28.2 33.8104 27.9399 33.6602L27.1546 33.2066C26.9186 33.0704 26.8374 32.7675 26.9736 32.5314L28.0852 30.6062C28.2215 30.3702 28.5244 30.2892 28.7604 30.4253L29.5473 30.8796C29.8077 31.0301 30.1337 31.0059 30.3692 30.8187C30.8042 30.4729 31.2858 30.1944 31.801 29.9907C32.0805 29.8802 32.2642 29.6102 32.2642 29.3096V28.4023C32.2642 28.1298 32.4859 27.9081 32.7584 27.9081H34.9815C35.254 27.9081 35.4757 28.1299 35.4757 28.4023V29.3096C35.4757 29.6102 35.6593 29.8802 35.9389 29.9907C36.4539 30.1943 36.9357 30.4729 37.3706 30.8187C37.6062 31.0059 37.9321 31.03 38.1926 30.8796L38.9795 30.4253C39.2155 30.289 39.5184 30.3702 39.6547 30.6062L40.7662 32.5313C40.8322 32.6457 40.8497 32.7789 40.8155 32.9063C40.7814 33.0339 40.6996 33.1404 40.5853 33.2064L39.7998 33.66C39.5396 33.8104 39.3975 34.1041 39.4412 34.4013Z" fill="url(#paint1_linear_3712_213)"/>
<path d="M33.8698 31.2622C31.6823 31.2622 29.9026 33.0419 29.9026 35.2294C29.9026 37.4169 31.6823 39.1966 33.8698 39.1966C36.0573 39.1966 37.837 37.4169 37.837 35.2294C37.837 33.0419 36.0573 31.2622 33.8698 31.2622ZM33.8698 37.7318C32.4901 37.7318 31.3675 36.6093 31.3675 35.2295C31.3675 33.8497 32.4901 32.7271 33.8698 32.7271C35.2496 32.7271 36.3722 33.8497 36.3722 35.2295C36.3722 36.6093 35.2496 37.7318 33.8698 37.7318Z" fill="url(#paint2_linear_3712_213)"/>
<path d="M69 43.3146C69 42.2965 68.6033 41.339 67.8829 40.6186C67.2929 40.0286 66.543 39.6559 65.7305 39.5407V34.9496C66.8843 33.5356 67.5777 31.7319 67.5777 29.7688V26.3144C67.5777 25.9099 67.2498 25.5819 66.8453 25.5819H59.5394C59.2088 23.0154 57.0113 21.0254 54.3563 21.0254H29.208C28.8035 21.0254 28.4756 21.3533 28.4756 21.7578C28.4756 22.1623 28.8035 22.4902 29.208 22.4902H54.3564C56.2021 22.4902 57.7405 23.8264 58.058 25.5819H56.7602C56.4662 24.5306 55.5003 23.7568 54.3564 23.7568H24.2275C22.8512 23.7568 21.7314 24.8766 21.7314 26.2529V44.2061C21.7314 45.5824 22.8512 46.7021 24.2275 46.7021H47.329C47.7205 46.9054 48.1449 47.0394 48.5876 47.0963C48.6182 47.3908 48.6655 47.6815 48.7256 47.9688H24.2275C22.1527 47.9688 20.4648 46.2812 20.4648 44.207V26.2529C20.4648 24.1781 22.1527 22.4902 24.2275 22.4902H25.8018C26.2063 22.4902 26.5342 22.1623 26.5342 21.7578C26.5342 21.3533 26.2063 21.0254 25.8018 21.0254H24.2275C21.345 21.0254 19 23.3704 19 26.2529V44.207C19 47.089 21.345 49.4336 24.2275 49.4336H31.4808L30.4881 51.6339C30.2012 52.2697 30.256 52.9991 30.6344 53.5851C31.0128 54.171 31.6552 54.5209 32.3527 54.5209H46.231C46.9285 54.5209 47.5709 54.1711 47.9494 53.5851C48.3278 52.9991 48.3825 52.2696 48.0957 51.6339L47.1029 49.4336H49.1723C49.5359 50.3286 50.0514 51.1602 50.7047 51.8956C50.3055 52.7014 50.1612 53.6111 50.2958 54.5019C48.0776 56.4635 46.8136 59.2544 46.8136 62.2295V66.2422C46.8136 66.6467 47.1415 66.9746 47.546 66.9746H66.7228C67.1272 66.9746 67.4552 66.6467 67.4552 66.2422V62.2295C67.4552 61.3885 67.3533 60.5509 67.1523 59.7399C67.055 59.3473 66.6578 59.108 66.2653 59.2051C65.8727 59.3023 65.6333 59.6995 65.7306 60.0921C65.9029 60.7879 65.9903 61.507 65.9903 62.2294V65.5097H57.8674V55.8619L60.4864 58.556C60.6247 58.6982 60.8143 58.7778 61.0115 58.7778C61.0254 58.7778 61.0392 58.7774 61.053 58.7767C61.2649 58.7646 61.4613 58.6612 61.5911 58.4933L63.1053 56.5339C63.2322 56.3697 63.3457 56.198 63.4472 56.0203C63.8104 56.3894 64.1409 56.789 64.4344 57.2163C64.5764 57.423 64.8056 57.5342 65.0388 57.5342C65.1816 57.5342 65.3261 57.4925 65.4527 57.4055C65.7861 57.1765 65.8708 56.7205 65.6418 56.3871C65.1651 55.6931 64.6047 55.0613 63.9737 54.5029C64.1084 53.6109 63.964 52.7008 63.5646 51.8949C64.7593 50.5486 65.4953 48.8818 65.6809 47.0959C67.5511 46.853 69 45.2499 69 43.3146ZM46.7188 52.7903C46.6673 52.8702 46.5164 53.0561 46.2309 53.0561H32.3527C32.0673 53.0561 31.9164 52.8702 31.8648 52.7903C31.8133 52.7104 31.706 52.4965 31.8233 52.2362L32.9333 49.7759C33.0271 49.5682 33.2349 49.4339 33.4628 49.4339H45.1208C45.3487 49.4339 45.5565 49.5682 45.6503 49.7759L46.7604 52.2362C46.8778 52.4966 46.7705 52.7104 46.7188 52.7903ZM66.113 29.7689C66.113 33.4873 63.0878 36.5125 59.3694 36.5125H55.7706C54.0562 36.5125 52.6613 35.1177 52.6613 33.4032V30.1562C52.6613 28.4417 54.0562 27.0469 55.7706 27.0469H66.113V29.7689ZM23.1963 44.2061V26.2529C23.1963 25.6843 23.6589 25.2217 24.2275 25.2217H54.3564C54.6876 25.2217 54.9819 25.3792 55.1707 25.6225C53.8034 25.8024 52.6251 26.5881 51.9142 27.7009C51.4199 27.1807 50.7226 26.8554 49.9502 26.8554C48.4549 26.8554 47.2383 28.072 47.2383 29.5673V30.5624C47.2383 30.9669 47.5662 31.2948 47.9707 31.2948C48.3752 31.2948 48.7031 30.9669 48.7031 30.5624V29.5673C48.7031 28.8796 49.2626 28.3202 49.9502 28.3202C50.6373 28.3202 51.1963 28.8797 51.1963 29.5673V35.2655C51.1963 35.5988 51.0665 35.9125 50.8323 36.1474C50.5962 36.3829 50.2829 36.5126 49.9502 36.5126C49.2625 36.5126 48.7031 35.9531 48.7031 35.2655V33.9765C48.7031 33.572 48.3752 33.244 47.9707 33.244C47.5662 33.244 47.2383 33.572 47.2383 33.9765V35.2655C47.2383 36.2438 47.7591 37.1026 48.5379 37.5797V39.5411C46.6919 39.8057 45.2685 41.3971 45.2685 43.3145C45.2685 44.0018 45.4494 44.6604 45.7875 45.2372H24.2275C23.6589 45.2373 23.1963 44.7747 23.1963 44.2061ZM51.8466 52.9694C52.9331 53.8206 54.1966 54.3911 55.5449 54.6425L53.3214 56.9297L52.3233 55.6382C52.0802 55.3235 51.907 54.9726 51.8082 54.5931C51.6661 54.053 51.6832 53.4907 51.8466 52.9694ZM48.2783 65.5098V62.2295C48.2783 59.8827 49.1945 57.6689 50.8214 56.019C50.923 56.1971 51.0368 56.3691 51.1642 56.534L52.6784 58.4935C52.8082 58.6614 53.0045 58.7648 53.2165 58.7769C53.2304 58.7776 53.2442 58.778 53.258 58.778C53.4553 58.778 53.6448 58.6984 53.7831 58.5561L56.4023 55.8619V65.5099L48.2783 65.5098ZM62.4612 54.5944C62.3615 54.9737 62.1883 55.3249 61.9462 55.6382L60.9481 56.9296L58.7245 54.6423C60.0725 54.3908 61.3358 53.8202 62.4228 52.9688C62.5864 53.4907 62.6035 54.0537 62.4612 54.5944ZM64.9926 45.663C64.5952 45.663 64.2703 45.9798 64.2604 46.3771C64.2136 48.2423 63.4516 49.9896 62.115 51.2968C60.7754 52.605 59.0066 53.3254 57.1347 53.3254C55.2615 53.3254 53.4926 52.6048 52.1534 51.2964C50.8167 49.9903 50.0548 48.2433 50.008 46.3771C49.998 45.9798 49.6731 45.663 49.2758 45.663H49.0814C48.4546 45.663 47.8648 45.4186 47.4207 44.9744C46.9773 44.5319 46.7332 43.9425 46.7332 43.3146C46.7332 42.0204 47.7866 40.9675 49.0814 40.9675H49.2702C49.6747 40.9675 50.0026 40.6395 50.0026 40.2351V37.9763C50.7062 37.963 51.3665 37.6835 51.8682 37.1832C52.0794 36.9714 52.2508 36.7305 52.38 36.47C53.2176 37.3951 54.4273 37.9773 55.7706 37.9773H59.3694C61.2029 37.9773 62.8979 37.3728 64.2657 36.3529V40.2352C64.2657 40.6396 64.5937 40.9676 64.9981 40.9676H65.1869C65.8146 40.9676 66.4042 41.2115 66.8472 41.6545C67.2908 42.0982 67.5352 42.6879 67.5352 43.3147C67.5352 44.6096 66.4816 45.6631 65.1868 45.6631H64.9926V45.663Z" fill="url(#paint3_linear_3712_213)"/>
<path d="M59.5339 39.5212C59.1294 39.5212 58.8015 39.8492 58.8015 40.2537V42.0996C58.8015 42.5041 59.1294 42.832 59.5339 42.832C59.9384 42.832 60.2663 42.5041 60.2663 42.0996V40.2537C60.2663 39.8492 59.9384 39.5212 59.5339 39.5212Z" fill="url(#paint4_linear_3712_213)"/>
<path d="M54.7346 42.832C55.1391 42.832 55.467 42.5041 55.467 42.0996V40.2537C55.467 39.8492 55.1391 39.5212 54.7346 39.5212C54.3301 39.5212 54.0021 39.8492 54.0021 40.2537V42.0996C54.0021 42.5041 54.3301 42.832 54.7346 42.832Z" fill="url(#paint5_linear_3712_213)"/>
<path d="M58.9039 46.3427C58.4312 46.8154 57.8028 47.0757 57.1343 47.0757C56.4657 47.0757 55.8373 46.8154 55.3646 46.3427C55.0786 46.0567 54.6148 46.0567 54.3289 46.3427C54.0429 46.6287 54.0429 47.0925 54.3289 47.3785C55.0782 48.1279 56.0745 48.5406 57.1344 48.5406C58.1941 48.5406 59.1904 48.1279 59.9397 47.3785C60.2258 47.0925 60.2258 46.6287 59.9397 46.3427C59.6536 46.0567 59.1898 46.0567 58.9039 46.3427Z" fill="url(#paint6_linear_3712_213)"/>
<path d="M59.9795 60.1675C59.575 60.1675 59.2471 60.4954 59.2471 60.8999V63.6277C59.2471 64.0322 59.575 64.3602 59.9795 64.3602H63.9738C64.3783 64.3602 64.7063 64.0322 64.7063 63.6277V60.8999C64.7063 60.4954 64.3783 60.1675 63.9738 60.1675H59.9795ZM63.2414 62.8953H60.7119V61.6323H63.2414V62.8953Z" fill="url(#paint7_linear_3712_213)"/>
</g>
</g>
<defs>
<linearGradient id="paint0_linear_3712_213" x1="3.27827e-07" y1="44" x2="88.0004" y2="44" gradientUnits="userSpaceOnUse">
<stop stop-color="#874FFF"/>
<stop offset="0.515625" stop-color="#FF6068"/>
<stop offset="1" stop-color="#FEB14B"/>
</linearGradient>
<linearGradient id="paint1_linear_3712_213" x1="25.443" y1="35.2295" x2="42.2967" y2="35.2295" gradientUnits="userSpaceOnUse">
<stop stop-color="#874FFF"/>
<stop offset="0.515625" stop-color="#FF6068"/>
<stop offset="1" stop-color="#FEB14B"/>
</linearGradient>
<linearGradient id="paint2_linear_3712_213" x1="29.9026" y1="35.2294" x2="37.837" y2="35.2294" gradientUnits="userSpaceOnUse">
<stop stop-color="#874FFF"/>
<stop offset="0.515625" stop-color="#FF6068"/>
<stop offset="1" stop-color="#FEB14B"/>
</linearGradient>
<linearGradient id="paint3_linear_3712_213" x1="19" y1="44" x2="69" y2="44" gradientUnits="userSpaceOnUse">
<stop stop-color="#874FFF"/>
<stop offset="0.515625" stop-color="#FF6068"/>
<stop offset="1" stop-color="#FEB14B"/>
</linearGradient>
<linearGradient id="paint4_linear_3712_213" x1="58.8015" y1="41.1766" x2="60.2663" y2="41.1766" gradientUnits="userSpaceOnUse">
<stop stop-color="#874FFF"/>
<stop offset="0.515625" stop-color="#FF6068"/>
<stop offset="1" stop-color="#FEB14B"/>
</linearGradient>
<linearGradient id="paint5_linear_3712_213" x1="54.0021" y1="41.1766" x2="55.467" y2="41.1766" gradientUnits="userSpaceOnUse">
<stop stop-color="#874FFF"/>
<stop offset="0.515625" stop-color="#FF6068"/>
<stop offset="1" stop-color="#FEB14B"/>
</linearGradient>
<linearGradient id="paint6_linear_3712_213" x1="54.1144" y1="47.3344" x2="60.1543" y2="47.3344" gradientUnits="userSpaceOnUse">
<stop stop-color="#874FFF"/>
<stop offset="0.515625" stop-color="#FF6068"/>
<stop offset="1" stop-color="#FEB14B"/>
</linearGradient>
<linearGradient id="paint7_linear_3712_213" x1="59.2471" y1="62.2638" x2="64.7063" y2="62.2638" gradientUnits="userSpaceOnUse">
<stop stop-color="#874FFF"/>
<stop offset="0.515625" stop-color="#FF6068"/>
<stop offset="1" stop-color="#FEB14B"/>
</linearGradient>
<clipPath id="clip0_3712_213">
<rect width="88" height="88" fill="white"/>
</clipPath>
<clipPath id="clip1_3712_213">
<rect width="50" height="50" fill="white" transform="translate(19 19)"/>
</clipPath>
</defs>
</svg>
