<svg width="88" height="88" viewBox="0 0 88 88" fill="none" xmlns="http://www.w3.org/2000/svg">
<g clip-path="url(#clip0_3712_312)">
<path d="M44.0803 88H43.9202C38.0622 88.0059 32.2634 86.8301 26.8704 84.543C21.6404 82.338 16.8898 79.1353 12.885 75.1133C8.86159 71.1085 5.6587 66.3568 3.45533 61.125C1.15591 55.7095 -0.0196034 49.8834 0.000247277 44C-0.0180992 38.1156 1.158 32.2887 3.45728 26.8721C5.66058 21.6412 8.8635 16.8903 12.887 12.8867C16.8902 8.86242 21.6416 5.65939 26.8733 3.45706C32.2581 1.1695 38.05 -0.00639244 43.9006 2.61355e-05H44.0999C49.9494 -0.00585075 55.7403 1.17003 61.1243 3.45706C66.3552 5.66036 71.106 8.86328 75.1096 12.8867C79.1332 16.8907 82.3366 21.6414 84.5413 26.8721C86.8405 32.2888 88.0172 38.1155 88.0002 44C88.0175 49.8835 86.8411 55.7093 84.5422 61.125C82.3366 66.3552 79.1333 71.1057 75.1106 75.1104C71.107 79.1338 66.3562 82.3368 61.1252 84.5401C55.7346 86.8296 49.937 88.0065 44.0803 88ZM44.0002 4.00003C33.401 4.03063 23.2451 8.25519 15.7502 15.75C8.25542 23.2449 4.03085 33.4008 4.00025 44C4.02954 54.5997 8.25318 64.7569 15.7483 72.252C23.2434 79.7471 33.4006 83.9707 44.0002 84C54.6003 83.972 64.7578 79.7484 72.2532 72.253C79.7486 64.7576 83.9723 54.6001 84.0002 44C83.971 33.4004 79.7473 23.2432 72.2522 15.7481C64.7571 8.25296 54.5999 4.02932 44.0002 4.00003Z" fill="url(#paint0_linear_3712_312)"/>
<g clip-path="url(#clip1_3712_312)">
<path d="M57.455 51.5146L56.0653 50.8732C55.3135 52.5021 54.1808 53.6881 52.8759 54.2124L52.3123 54.439L52.405 55.0393C52.4326 55.2185 52.446 55.3865 52.446 55.5532C52.446 57.0488 51.3876 58.3719 49.9294 58.6993L49.4284 58.8118L49.3425 59.3181C49.1542 60.4286 48.1986 61.2347 47.0705 61.2347C45.7995 61.2347 44.7654 60.2006 44.7654 58.9296V56.3979H43.2349V58.9296C43.2349 60.2006 42.2008 61.2347 40.9298 61.2347C39.8017 61.2347 38.8461 60.4285 38.6577 59.318L38.5718 58.8117L38.0708 58.6991C36.6125 58.3718 35.5542 57.0486 35.5542 55.553C35.5542 55.3864 35.5677 55.2183 35.5952 55.0391L35.6879 54.4388L35.1243 54.2122C33.8193 53.6877 32.6866 52.5019 31.9349 50.873L30.5452 51.5145C31.3634 53.2869 32.5859 54.6427 34.0267 55.3901C34.0247 55.4448 34.0237 55.499 34.0237 55.5529C34.0237 57.6291 35.3338 59.4191 37.2643 60.0616C37.752 61.6545 39.2221 62.7652 40.9299 62.7652C42.1843 62.7652 43.3 62.1599 44.0003 61.2262C44.7006 62.16 45.8163 62.7652 47.0707 62.7652C48.7784 62.7652 50.2486 61.6545 50.7363 60.0616C52.6667 59.4192 53.9769 57.6291 53.9769 55.5529C53.977 55.4992 53.976 55.445 53.974 55.3902C55.4143 54.643 56.6369 53.2871 57.455 51.5146Z" fill="url(#paint1_linear_3712_312)"/>
<path d="M53.8191 31.6076C53.4666 30.041 52.1815 28.869 50.5878 28.6614C49.9871 27.2809 48.6115 26.3572 47.0703 26.3572C45.8159 26.3572 44.7002 26.9625 43.9999 27.8963C43.2996 26.9625 42.1839 26.3572 40.9295 26.3572C39.388 26.3572 38.0122 27.2812 37.4116 28.6622C36.6318 28.766 35.9018 29.1071 35.3167 29.6485L36.3564 30.7718C36.7833 30.3767 37.3386 30.1591 37.9152 30.1591C37.9317 30.1597 37.9479 30.1601 37.9641 30.1601H38.5512L38.7032 29.5929C38.9724 28.5888 39.8878 27.8876 40.9293 27.8876C42.2003 27.8876 43.2344 28.9217 43.2344 30.1927V32.7244H44.765V30.1927C44.765 28.9217 45.799 27.8876 47.07 27.8876C48.1115 27.8876 49.027 28.589 49.2962 29.5929L49.4483 30.1601H50.0354C50.0515 30.1601 50.0676 30.1597 50.0792 30.1591C51.2604 30.1591 52.2684 31.0798 52.3741 32.2552L52.4206 32.7724L52.9184 32.9203C55.1944 33.5965 56.8694 35.6372 57.0864 37.9985L58.6108 37.8584C58.3482 34.9968 56.4874 32.592 53.8191 31.6076Z" fill="url(#paint2_linear_3712_312)"/>
<path d="M39.7142 40.2754V48.8468H48.2856V40.2754H39.7142ZM46.7551 47.3162H41.2449V41.8061H46.7551V47.3162Z" fill="url(#paint3_linear_3712_312)"/>
<path d="M67.2143 54.7297V45.3266H51.449V43.7959H67.2144V40.2091C68.2482 39.8833 69.0001 38.9157 69.0001 37.7755C69.0001 36.3689 67.8557 35.2246 66.4491 35.2246C65.0426 35.2246 63.8981 36.369 63.8981 37.7755C63.8981 38.9157 64.65 39.8833 65.6839 40.2091V42.2654H51.449V40.7348H62.2653V28.4745C63.2992 28.1487 64.0511 27.181 64.0511 26.0409C64.0511 24.6342 62.9066 23.4899 61.5001 23.4899C60.0936 23.4899 58.9491 24.6343 58.9491 26.0409C58.9491 27.181 59.701 28.1486 60.7349 28.4745V39.2042H51.4491V37.1124H49.3573V35.2756H47.8268V37.1124H46.2959V35.2756H44.7653V37.1124H43.2348V35.2756H41.7041V37.1124H40.1735V35.2756H38.643V37.1124H36.5512V39.2042H34.4594V27.1479C35.4933 26.8221 36.2451 25.8544 36.2451 24.7143C36.2451 23.3077 35.1007 22.1633 33.6941 22.1633C32.2876 22.1633 31.1432 23.3078 31.1432 24.7143C31.1432 25.8544 31.895 26.822 32.9289 27.1479V32.2135C30.7146 33.5506 29.3575 35.9346 29.3575 38.5439C29.3575 39.4448 29.5182 40.3249 29.8349 41.1593L31.2658 40.6163C31.0152 39.9558 30.8881 39.2586 30.8881 38.5439C30.8881 36.8072 31.6468 35.1964 32.9289 34.0962V40.7347H36.5515V42.2653H27.3163V37.1123H23.9846C23.6588 36.0784 22.6911 35.3265 21.551 35.3265C20.1444 35.3266 19 36.4709 19 37.8776C19 39.2842 20.1444 40.4286 21.551 40.4286C22.6911 40.4286 23.6587 39.6767 23.9846 38.6428H25.7856V43.7958H36.551V45.3264H23.9846C23.6588 44.2925 22.6911 43.5407 21.551 43.5407C20.1444 43.5409 19 44.6852 19 46.0918C19 47.4985 20.1444 48.6428 21.551 48.6428C22.6911 48.6428 23.6587 47.891 23.9846 46.8571H36.551V48.3876H24.7653V55.3418C23.7314 55.6676 22.9796 56.6353 22.9796 57.7754C22.9796 59.1821 24.124 60.3264 25.5306 60.3264C26.9371 60.3264 28.0815 59.182 28.0815 57.7754C28.0815 56.6353 27.3297 55.6677 26.2958 55.3418V49.9183H36.5509V52.0101H38.6427V53.8468H40.1732V52.0101H41.7038V53.8468H43.2344V52.0101H44.7649V53.8468H46.2955V52.0101H47.8261V53.8468H49.3566V52.0101H51.4484V49.9183H60.7342V56.3979H55.122V60.8521C54.0881 61.1779 53.3362 62.1456 53.3362 63.2857C53.3362 64.6923 54.4807 65.8367 55.8872 65.8367C57.2938 65.8367 58.4382 64.6922 58.4382 63.2857C58.4382 62.1456 57.6863 61.178 56.6524 60.8521V57.9286H62.2646V48.3877H51.449V46.8572H65.6837V54.7297C64.6498 55.0555 63.8979 56.0232 63.8979 57.1633C63.8979 58.57 65.0424 59.7143 66.4489 59.7143C67.8555 59.7143 69 58.57 69 57.1633C69 56.0232 68.2481 55.0555 67.2143 54.7297ZM65.4286 37.7755C65.4286 37.2128 65.8863 36.7551 66.449 36.7551C67.0117 36.7551 67.4694 37.2128 67.4694 37.7755C67.4694 38.3382 67.0117 38.7959 66.449 38.7959C65.8863 38.7959 65.4286 38.3382 65.4286 37.7755ZM60.4796 26.0409C60.4796 25.4782 60.9373 25.0205 61.5 25.0205C62.0627 25.0205 62.5204 25.4782 62.5204 26.0409C62.5204 26.6036 62.0627 27.0613 61.5 27.0613C60.9373 27.0613 60.4796 26.6036 60.4796 26.0409ZM33.6938 25.7347C33.1312 25.7347 32.6734 25.277 32.6734 24.7143C32.6734 24.1516 33.1312 23.6939 33.6938 23.6939C34.2565 23.6939 34.7143 24.1516 34.7143 24.7143C34.7143 25.277 34.2565 25.7347 33.6938 25.7347ZM21.551 38.898C20.9883 38.898 20.5306 38.4403 20.5306 37.8776C20.5306 37.3149 20.9883 36.8572 21.551 36.8572C22.1137 36.8572 22.5714 37.3149 22.5714 37.8776C22.5714 38.4403 22.1137 38.898 21.551 38.898ZM21.551 47.1123C20.9883 47.1123 20.5306 46.6545 20.5306 46.0918C20.5306 45.5292 20.9883 45.0714 21.551 45.0714C22.1137 45.0714 22.5714 45.5292 22.5714 46.0918C22.5714 46.6545 22.1137 47.1123 21.551 47.1123ZM26.551 57.7755C26.551 58.3382 26.0933 58.7959 25.5306 58.7959C24.9679 58.7959 24.5102 58.3382 24.5102 57.7755C24.5102 57.2128 24.9679 56.7551 25.5306 56.7551C26.0933 56.7551 26.551 57.2129 26.551 57.7755ZM49.9184 50.4796H38.0816V38.6429H49.9184V50.4796ZM56.9082 63.2858C56.9082 63.8485 56.4505 64.3062 55.8878 64.3062C55.3251 64.3062 54.8674 63.8485 54.8674 63.2858C54.8674 62.7231 55.3251 62.2654 55.8878 62.2654C56.4504 62.2654 56.9082 62.7231 56.9082 63.2858ZM66.449 58.1837C65.8863 58.1837 65.4286 57.726 65.4286 57.1633C65.4286 56.6006 65.8863 56.1429 66.449 56.1429C67.0117 56.1429 67.4694 56.6006 67.4694 57.1633C67.4694 57.7259 67.0116 58.1837 66.449 58.1837Z" fill="url(#paint4_linear_3712_312)"/>
</g>
</g>
<defs>
<linearGradient id="paint0_linear_3712_312" x1="3.27827e-07" y1="44" x2="88.0004" y2="44" gradientUnits="userSpaceOnUse">
<stop stop-color="#874FFF"/>
<stop offset="0.515625" stop-color="#FF6068"/>
<stop offset="1" stop-color="#FEB14B"/>
</linearGradient>
<linearGradient id="paint1_linear_3712_312" x1="30.5452" y1="56.8191" x2="57.455" y2="56.8191" gradientUnits="userSpaceOnUse">
<stop stop-color="#874FFF"/>
<stop offset="0.515625" stop-color="#FF6068"/>
<stop offset="1" stop-color="#FEB14B"/>
</linearGradient>
<linearGradient id="paint2_linear_3712_312" x1="35.3167" y1="32.1778" x2="58.6108" y2="32.1778" gradientUnits="userSpaceOnUse">
<stop stop-color="#874FFF"/>
<stop offset="0.515625" stop-color="#FF6068"/>
<stop offset="1" stop-color="#FEB14B"/>
</linearGradient>
<linearGradient id="paint3_linear_3712_312" x1="39.7142" y1="44.5611" x2="48.2856" y2="44.5611" gradientUnits="userSpaceOnUse">
<stop stop-color="#874FFF"/>
<stop offset="0.515625" stop-color="#FF6068"/>
<stop offset="1" stop-color="#FEB14B"/>
</linearGradient>
<linearGradient id="paint4_linear_3712_312" x1="19" y1="44" x2="69.0001" y2="44" gradientUnits="userSpaceOnUse">
<stop stop-color="#874FFF"/>
<stop offset="0.515625" stop-color="#FF6068"/>
<stop offset="1" stop-color="#FEB14B"/>
</linearGradient>
<clipPath id="clip0_3712_312">
<rect width="88" height="88" fill="white"/>
</clipPath>
<clipPath id="clip1_3712_312">
<rect width="50" height="50" fill="white" transform="translate(19 19)"/>
</clipPath>
</defs>
</svg>
