<svg width="88" height="88" viewBox="0 0 88 88" fill="none" xmlns="http://www.w3.org/2000/svg">
<g clip-path="url(#clip0_3712_248)">
<path d="M44.0803 88H43.9202C38.0622 88.0059 32.2634 86.8301 26.8704 84.543C21.6404 82.338 16.8898 79.1353 12.885 75.1133C8.86159 71.1085 5.6587 66.3568 3.45533 61.125C1.15591 55.7095 -0.0196034 49.8834 0.000247277 44C-0.0180992 38.1156 1.158 32.2887 3.45728 26.8721C5.66058 21.6412 8.8635 16.8903 12.887 12.8867C16.8902 8.86242 21.6416 5.65939 26.8733 3.45706C32.2581 1.1695 38.05 -0.00639244 43.9006 2.61355e-05H44.0999C49.9494 -0.00585075 55.7403 1.17003 61.1243 3.45706C66.3552 5.66036 71.106 8.86328 75.1096 12.8867C79.1332 16.8907 82.3366 21.6414 84.5413 26.8721C86.8405 32.2888 88.0172 38.1155 88.0002 44C88.0175 49.8835 86.8411 55.7093 84.5422 61.125C82.3366 66.3552 79.1333 71.1057 75.1106 75.1104C71.107 79.1338 66.3562 82.3368 61.1252 84.5401C55.7346 86.8296 49.937 88.0065 44.0803 88ZM44.0002 4.00003C33.401 4.03063 23.2451 8.25519 15.7502 15.75C8.25542 23.2449 4.03085 33.4008 4.00025 44C4.02954 54.5997 8.25318 64.7569 15.7483 72.252C23.2434 79.7471 33.4006 83.9707 44.0002 84C54.6003 83.972 64.7578 79.7484 72.2532 72.253C79.7486 64.7576 83.9723 54.6001 84.0002 44C83.971 33.4004 79.7473 23.2432 72.2522 15.7481C64.7571 8.25296 54.5999 4.02932 44.0002 4.00003Z" fill="url(#paint0_linear_3712_248)"/>
<g clip-path="url(#clip1_3712_248)">
<path d="M62.5484 50.7202L56.0968 59.3226H59.3226V68.1936H60.9355V57.7097H59.3226L62.5484 53.4089L65.7742 57.7097H64.1613V68.1936H65.7742V59.3226H69L62.5484 50.7202Z" fill="url(#paint1_linear_3712_248)"/>
<path d="M28.6774 60.129V51.2581H27.0645V61.7419H28.6774L25.4516 66.0427L22.2258 61.7419H23.8387V51.2581H22.2258V60.129H19L25.4516 68.7314L31.9032 60.129H28.6774Z" fill="url(#paint2_linear_3712_248)"/>
<path d="M38.3548 61.8903V58.5161H36.7419V61.8903C35.8056 62.2242 35.129 63.1113 35.129 64.1613C35.129 65.4951 36.2145 66.5806 37.5484 66.5806C38.8823 66.5806 39.9677 65.4951 39.9677 64.1613C39.9677 63.1113 39.2911 62.2242 38.3548 61.8903ZM37.5484 64.9677C37.1032 64.9677 36.7419 64.6056 36.7419 64.1613C36.7419 63.7169 37.1032 63.3548 37.5484 63.3548C37.9935 63.3548 38.3548 63.7169 38.3548 64.1613C38.3548 64.6056 37.9935 64.9677 37.5484 64.9677Z" fill="url(#paint3_linear_3712_248)"/>
<path d="M44.8064 64.3096V59.3225H43.1935V64.3096C42.2572 64.6435 41.5806 65.5306 41.5806 66.5806C41.5806 67.9144 42.6661 68.9999 44 68.9999C45.3339 68.9999 46.4193 67.9144 46.4193 66.5806C46.4193 65.5306 45.7427 64.6435 44.8064 64.3096ZM44 67.387C43.5548 67.387 43.1935 67.0249 43.1935 66.5806C43.1935 66.1362 43.5548 65.7741 44 65.7741C44.4451 65.7741 44.8064 66.1362 44.8064 66.5806C44.8064 67.0249 44.4451 67.387 44 67.387Z" fill="url(#paint4_linear_3712_248)"/>
<path d="M51.2581 61.8903V58.5161H49.6452V61.8903C48.7089 62.2242 48.0323 63.1113 48.0323 64.1613C48.0323 65.4951 49.1178 66.5806 50.4516 66.5806C51.7855 66.5806 52.871 65.4951 52.871 64.1613C52.871 63.1113 52.1944 62.2242 51.2581 61.8903ZM50.4516 64.9677C50.0065 64.9677 49.6452 64.6056 49.6452 64.1613C49.6452 63.7169 50.0065 63.3548 50.4516 63.3548C50.8968 63.3548 51.2581 63.7169 51.2581 64.1613C51.2581 64.6056 50.8968 64.9677 50.4516 64.9677Z" fill="url(#paint5_linear_3712_248)"/>
<path d="M48.8387 22.2258V23.8387C51.6806 23.8387 54.0895 25.9621 54.4403 28.7774L56.0403 28.5782C55.5895 24.9565 52.4927 22.2258 48.8387 22.2258Z" fill="url(#paint6_linear_3712_248)"/>
<path d="M59.3024 28.8202C58.9581 23.3476 54.3968 19 48.8387 19C45.2855 19 41.9903 20.8024 40.0621 23.7524C39.0194 23.2798 37.8863 23.0323 36.742 23.0323C32.5549 23.0323 29.1024 26.2403 28.7137 30.3266C24.6274 30.7153 21.4194 34.1677 21.4194 38.3548C21.4194 42.8016 25.0371 46.4194 29.4839 46.4194H30.517C31.6645 52.8274 37.267 57.7097 44 57.7097C50.7331 57.7097 56.3355 52.8274 57.4831 46.4194H57.7097C62.6008 46.4194 66.5807 42.4395 66.5807 37.5484C66.5807 33.2081 63.4984 29.5734 59.3024 28.8202ZM35.6774 52.7565C33.542 50.7258 32.1516 47.9282 31.9444 44.8065H36.7807C36.8984 47.1242 37.4928 49.1702 38.3016 50.8984C36.9887 51.5476 36.1291 52.2936 35.6774 52.7565ZM38.3024 37.1016C37.4936 38.8298 36.8992 40.8758 36.7815 43.1935H31.9444C32.1516 40.0718 33.542 37.2742 35.6782 35.2435C36.129 35.7065 36.9895 36.4532 38.3024 37.1016ZM36.9218 34.2113C38.3226 33.1952 39.9428 32.4685 41.7041 32.129C40.8871 32.9952 39.921 34.1911 39.0532 35.6806C37.9944 35.1653 37.2976 34.5831 36.9218 34.2113ZM36.9242 53.7903C37.3 53.4218 37.9984 52.8411 39.0573 52.3242C39.9234 53.8121 40.8887 55.0056 41.7049 55.8718C39.9444 55.5323 38.3242 54.8056 36.9242 53.7903ZM43.1936 55.0742C42.4403 54.3056 41.4774 53.1742 40.6016 51.7258C41.3508 51.5056 42.2137 51.3452 43.1936 51.2855V55.0742ZM43.1936 44.8065V49.6734C41.8976 49.7427 40.7774 49.971 39.8178 50.2831C39.071 48.7202 38.5145 46.8782 38.3944 44.8056H43.1936V44.8065ZM43.1936 43.1935H38.3944C38.5153 41.121 39.071 39.279 39.8178 37.7161C40.7766 38.029 41.8976 38.2573 43.1936 38.3258V43.1935ZM43.1936 36.7145C42.2113 36.6556 41.3492 36.496 40.6 36.2766C41.4766 34.8266 42.4395 33.6952 43.1936 32.9258V36.7145ZM47.3984 36.2742C46.6492 36.4944 45.7863 36.6548 44.8065 36.7137V32.9258C45.5597 33.6952 46.5226 34.8258 47.3984 36.2742ZM46.2952 32.1282C48.0557 32.4677 49.6758 33.1944 51.0758 34.2097C50.7 34.5782 50.0016 35.1589 48.9428 35.6758C48.0766 34.1879 47.1113 32.9944 46.2952 32.1282ZM48.1823 37.7169C48.9291 39.2798 49.4855 41.1218 49.6057 43.1944H44.8065V43.1935V38.3266C46.1024 38.2573 47.2226 38.029 48.1823 37.7169ZM49.6057 44.8065C49.4847 46.879 48.9291 48.721 48.1823 50.2839C47.2226 49.971 46.1024 49.7427 44.8065 49.6734V44.8065H49.6057ZM47.4 51.7234C46.5234 53.1734 45.5597 54.3048 44.8065 55.0742V51.2855C45.7887 51.3444 46.6508 51.504 47.4 51.7234ZM46.296 55.871C47.1129 55.0048 48.079 53.8089 48.9468 52.3194C50.0057 52.8347 50.7024 53.4169 51.0782 53.7887C49.6774 54.8048 48.0573 55.5315 46.296 55.871ZM52.3226 52.7565C51.8718 52.2936 51.0113 51.5468 49.6984 50.8984C50.5073 49.1702 51.1016 47.1242 51.2194 44.8065H56.0557C55.8484 47.9282 54.4581 50.7258 52.3226 52.7565ZM51.2194 43.1935C51.1016 40.8758 50.5073 38.8298 49.6984 37.1016C51.0113 36.4524 51.871 35.7065 52.3226 35.2435C54.4589 37.275 55.8492 40.0718 56.0565 43.1935H51.2194ZM57.7097 44.8065H57.6686C57.6847 44.5379 57.7097 44.2726 57.7097 44C57.7097 36.4403 51.5597 30.2903 44 30.2903C36.4403 30.2903 30.2903 36.4403 30.2903 44C30.2903 44.2726 30.3153 44.5379 30.3315 44.8065H29.4839C25.9266 44.8065 23.0323 41.9121 23.0323 38.3548C23.0323 34.7976 25.9266 31.9032 29.4839 31.9032H30.2903V31.0968C30.2903 27.5395 33.1847 24.6452 36.742 24.6452C37.867 24.6452 38.979 24.9452 39.9597 25.5121L40.6718 25.9242L41.0694 25.204C42.6339 22.3718 45.6105 20.6129 48.8387 20.6129C53.7299 20.6129 57.7097 24.5927 57.7113 29.4331L57.7073 30.2548L58.4339 30.3266C62.1597 30.696 64.9678 33.8008 64.9678 37.5484C64.9678 41.55 61.7121 44.8065 57.7097 44.8065Z" fill="url(#paint7_linear_3712_248)"/>
</g>
</g>
<defs>
<linearGradient id="paint0_linear_3712_248" x1="3.27827e-07" y1="44" x2="88.0004" y2="44" gradientUnits="userSpaceOnUse">
<stop stop-color="#874FFF"/>
<stop offset="0.515625" stop-color="#FF6068"/>
<stop offset="1" stop-color="#FEB14B"/>
</linearGradient>
<linearGradient id="paint1_linear_3712_248" x1="56.0968" y1="59.4569" x2="69" y2="59.4569" gradientUnits="userSpaceOnUse">
<stop stop-color="#874FFF"/>
<stop offset="0.515625" stop-color="#FF6068"/>
<stop offset="1" stop-color="#FEB14B"/>
</linearGradient>
<linearGradient id="paint2_linear_3712_248" x1="19" y1="59.9948" x2="31.9032" y2="59.9948" gradientUnits="userSpaceOnUse">
<stop stop-color="#874FFF"/>
<stop offset="0.515625" stop-color="#FF6068"/>
<stop offset="1" stop-color="#FEB14B"/>
</linearGradient>
<linearGradient id="paint3_linear_3712_248" x1="35.129" y1="62.5484" x2="39.9677" y2="62.5484" gradientUnits="userSpaceOnUse">
<stop stop-color="#874FFF"/>
<stop offset="0.515625" stop-color="#FF6068"/>
<stop offset="1" stop-color="#FEB14B"/>
</linearGradient>
<linearGradient id="paint4_linear_3712_248" x1="41.5806" y1="64.1612" x2="46.4193" y2="64.1612" gradientUnits="userSpaceOnUse">
<stop stop-color="#874FFF"/>
<stop offset="0.515625" stop-color="#FF6068"/>
<stop offset="1" stop-color="#FEB14B"/>
</linearGradient>
<linearGradient id="paint5_linear_3712_248" x1="48.0323" y1="62.5484" x2="52.871" y2="62.5484" gradientUnits="userSpaceOnUse">
<stop stop-color="#874FFF"/>
<stop offset="0.515625" stop-color="#FF6068"/>
<stop offset="1" stop-color="#FEB14B"/>
</linearGradient>
<linearGradient id="paint6_linear_3712_248" x1="48.8387" y1="25.5016" x2="56.0403" y2="25.5016" gradientUnits="userSpaceOnUse">
<stop stop-color="#874FFF"/>
<stop offset="0.515625" stop-color="#FF6068"/>
<stop offset="1" stop-color="#FEB14B"/>
</linearGradient>
<linearGradient id="paint7_linear_3712_248" x1="21.4194" y1="38.3548" x2="66.5807" y2="38.3548" gradientUnits="userSpaceOnUse">
<stop stop-color="#874FFF"/>
<stop offset="0.515625" stop-color="#FF6068"/>
<stop offset="1" stop-color="#FEB14B"/>
</linearGradient>
<clipPath id="clip0_3712_248">
<rect width="88" height="88" fill="white"/>
</clipPath>
<clipPath id="clip1_3712_248">
<rect width="50" height="50" fill="white" transform="translate(19 19)"/>
</clipPath>
</defs>
</svg>
