<svg width="88" height="88" viewBox="0 0 88 88" fill="none" xmlns="http://www.w3.org/2000/svg">
<g clip-path="url(#clip0_3712_190)">
<path d="M44.0803 88H43.9202C38.0622 88.0059 32.2634 86.8301 26.8704 84.543C21.6404 82.338 16.8898 79.1353 12.885 75.1133C8.86159 71.1085 5.6587 66.3568 3.45533 61.125C1.15591 55.7095 -0.0196034 49.8834 0.000247277 44C-0.0180992 38.1156 1.158 32.2887 3.45728 26.8721C5.66058 21.6412 8.8635 16.8903 12.887 12.8867C16.8902 8.86242 21.6416 5.65939 26.8733 3.45706C32.2581 1.1695 38.05 -0.00639244 43.9006 2.61355e-05H44.0999C49.9494 -0.00585075 55.7403 1.17003 61.1243 3.45706C66.3552 5.66036 71.106 8.86328 75.1096 12.8867C79.1332 16.8907 82.3366 21.6414 84.5413 26.8721C86.8405 32.2888 88.0172 38.1155 88.0002 44C88.0175 49.8835 86.8411 55.7093 84.5422 61.125C82.3366 66.3552 79.1333 71.1057 75.1106 75.1104C71.107 79.1338 66.3562 82.3368 61.1252 84.5401C55.7346 86.8296 49.937 88.0065 44.0803 88ZM44.0002 4.00003C33.401 4.03063 23.2451 8.25519 15.7502 15.75C8.25542 23.2449 4.03085 33.4008 4.00025 44C4.02954 54.5997 8.25318 64.7569 15.7483 72.252C23.2434 79.7471 33.4006 83.9707 44.0002 84C54.6003 83.972 64.7578 79.7484 72.2532 72.253C79.7486 64.7576 83.9723 54.6001 84.0002 44C83.971 33.4004 79.7473 23.2432 72.2522 15.7481C64.7571 8.25296 54.5999 4.02932 44.0002 4.00003Z" fill="url(#paint0_linear_3712_190)"/>
<g clip-path="url(#clip1_3712_190)">
<path d="M67.102 20.741H20.898C19.8514 20.741 19 21.5923 19 22.6389V57.6608C19 58.7072 19.8514 59.5587 20.898 59.5587H38.3243V65.6636H30.7988C30.3582 65.6636 30.001 66.0209 30.001 66.4615C30.001 66.9021 30.3582 67.2594 30.7988 67.2594H57.2012C57.6419 67.2594 57.999 66.9021 57.999 66.4615C57.999 66.0209 57.6419 65.6636 57.2012 65.6636H49.6759V59.5586H67.1021C68.1487 59.5586 69.0001 58.7072 69.0001 57.6606V22.6389C69 21.5923 68.1486 20.741 67.102 20.741ZM48.0801 65.6635H39.92V59.5586H48.0801V65.6635ZM67.4043 57.6606C67.4043 57.8245 67.2659 57.9629 67.102 57.9629H20.898C20.7341 57.9629 20.5957 57.8245 20.5957 57.6606V22.6389C20.5957 22.4751 20.7341 22.3367 20.898 22.3367H67.102C67.2659 22.3367 67.4043 22.4751 67.4043 22.6389V57.6606Z" fill="url(#paint1_linear_3712_190)"/>
<path d="M64.9019 51.4712H23.0982C22.6576 51.4712 22.3003 51.8284 22.3003 52.2691C22.3003 52.7097 22.6576 53.0669 23.0982 53.0669H64.9019C65.3427 53.0669 65.6998 52.7097 65.6998 52.2691C65.6998 51.8284 65.3426 51.4712 64.9019 51.4712Z" fill="url(#paint2_linear_3712_190)"/>
<path d="M30.7021 48.8114H34.9575C35.3981 48.8114 35.7553 48.4542 35.7553 48.0136V36.4383C35.7553 35.9976 35.3981 35.6404 34.9575 35.6404H30.7021C30.2615 35.6404 29.9043 35.9976 29.9043 36.4383V48.0136C29.9043 48.4542 30.2615 48.8114 30.7021 48.8114ZM31.5 37.2361H34.1596V47.2157H31.5V37.2361Z" fill="url(#paint3_linear_3712_190)"/>
<path d="M38.1489 48.8116H42.4043C42.8449 48.8116 43.2021 48.4543 43.2021 48.0137V32.6636C43.2021 32.223 42.8449 31.8657 42.4043 31.8657H38.1489C37.7083 31.8657 37.3511 32.223 37.3511 32.6636V48.0137C37.3511 48.4543 37.7083 48.8116 38.1489 48.8116ZM38.9468 33.4615H41.6064V47.2158H38.9468V33.4615Z" fill="url(#paint4_linear_3712_190)"/>
<path d="M45.5958 48.8114H49.8511C50.2918 48.8114 50.6489 48.4542 50.6489 48.0135V29.0943C50.6489 28.6536 50.2918 28.2964 49.8511 28.2964H45.5958C45.155 28.2964 44.7979 28.6536 44.7979 29.0943V48.0135C44.7979 48.4542 45.155 48.8114 45.5958 48.8114ZM46.3936 29.8921H49.0532V47.2156H46.3936V29.8921Z" fill="url(#paint5_linear_3712_190)"/>
<path d="M53.0426 48.8115H57.2979C57.7386 48.8115 58.0958 48.4543 58.0958 48.0137V40.1104C58.0958 39.6697 57.7386 39.3125 57.2979 39.3125H53.0426C52.6018 39.3125 52.2447 39.6697 52.2447 40.1104V48.0137C52.2447 48.4543 52.6018 48.8115 53.0426 48.8115ZM53.8404 40.9082H56.5V47.2158H53.8404V40.9082Z" fill="url(#paint6_linear_3712_190)"/>
</g>
</g>
<defs>
<linearGradient id="paint0_linear_3712_190" x1="3.27827e-07" y1="44" x2="88.0004" y2="44" gradientUnits="userSpaceOnUse">
<stop stop-color="#874FFF"/>
<stop offset="0.515625" stop-color="#FF6068"/>
<stop offset="1" stop-color="#FEB14B"/>
</linearGradient>
<linearGradient id="paint1_linear_3712_190" x1="19" y1="44.0002" x2="69.0001" y2="44.0002" gradientUnits="userSpaceOnUse">
<stop stop-color="#874FFF"/>
<stop offset="0.515625" stop-color="#FF6068"/>
<stop offset="1" stop-color="#FEB14B"/>
</linearGradient>
<linearGradient id="paint2_linear_3712_190" x1="22.3003" y1="52.2691" x2="65.6998" y2="52.2691" gradientUnits="userSpaceOnUse">
<stop stop-color="#874FFF"/>
<stop offset="0.515625" stop-color="#FF6068"/>
<stop offset="1" stop-color="#FEB14B"/>
</linearGradient>
<linearGradient id="paint3_linear_3712_190" x1="29.9043" y1="42.2259" x2="35.7553" y2="42.2259" gradientUnits="userSpaceOnUse">
<stop stop-color="#874FFF"/>
<stop offset="0.515625" stop-color="#FF6068"/>
<stop offset="1" stop-color="#FEB14B"/>
</linearGradient>
<linearGradient id="paint4_linear_3712_190" x1="37.3511" y1="40.3386" x2="43.2021" y2="40.3386" gradientUnits="userSpaceOnUse">
<stop stop-color="#874FFF"/>
<stop offset="0.515625" stop-color="#FF6068"/>
<stop offset="1" stop-color="#FEB14B"/>
</linearGradient>
<linearGradient id="paint5_linear_3712_190" x1="44.7979" y1="38.5539" x2="50.6489" y2="38.5539" gradientUnits="userSpaceOnUse">
<stop stop-color="#874FFF"/>
<stop offset="0.515625" stop-color="#FF6068"/>
<stop offset="1" stop-color="#FEB14B"/>
</linearGradient>
<linearGradient id="paint6_linear_3712_190" x1="52.2447" y1="44.062" x2="58.0958" y2="44.062" gradientUnits="userSpaceOnUse">
<stop stop-color="#874FFF"/>
<stop offset="0.515625" stop-color="#FF6068"/>
<stop offset="1" stop-color="#FEB14B"/>
</linearGradient>
<clipPath id="clip0_3712_190">
<rect width="88" height="88" fill="white"/>
</clipPath>
<clipPath id="clip1_3712_190">
<rect width="50" height="50" fill="white" transform="translate(19 19)"/>
</clipPath>
</defs>
</svg>
