<svg width="88" height="88" viewBox="0 0 88 88" fill="none" xmlns="http://www.w3.org/2000/svg">
<g clip-path="url(#clip0_3707_110)">
<path d="M44.0803 88H43.9202C38.0622 88.0059 32.2634 86.8301 26.8704 84.543C21.6404 82.338 16.8898 79.1353 12.885 75.1133C8.86159 71.1085 5.6587 66.3568 3.45533 61.125C1.15591 55.7095 -0.0196034 49.8834 0.000247277 44C-0.0180992 38.1156 1.158 32.2887 3.45728 26.8721C5.66058 21.6412 8.8635 16.8903 12.887 12.8867C16.8902 8.86242 21.6416 5.65939 26.8733 3.45706C32.2581 1.1695 38.05 -0.00639244 43.9006 2.61355e-05H44.0999C49.9494 -0.00585075 55.7403 1.17003 61.1243 3.45706C66.3552 5.66036 71.106 8.86328 75.1096 12.8867C79.1332 16.8907 82.3366 21.6414 84.5413 26.8721C86.8405 32.2888 88.0172 38.1155 88.0002 44C88.0175 49.8835 86.8411 55.7093 84.5422 61.125C82.3366 66.3552 79.1333 71.1057 75.1106 75.1104C71.107 79.1338 66.3562 82.3368 61.1252 84.5401C55.7346 86.8296 49.937 88.0065 44.0803 88ZM44.0002 4.00003C33.401 4.03063 23.2451 8.25519 15.7502 15.75C8.25542 23.2449 4.03085 33.4008 4.00025 44C4.02954 54.5997 8.25318 64.7569 15.7483 72.252C23.2434 79.7471 33.4006 83.9707 44.0002 84C54.6003 83.972 64.7578 79.7484 72.2532 72.253C79.7486 64.7576 83.9723 54.6001 84.0002 44C83.971 33.4004 79.7473 23.2432 72.2522 15.7481C64.7571 8.25296 54.5999 4.02932 44.0002 4.00003Z" fill="url(#paint0_linear_3707_110)"/>
<g clip-path="url(#clip1_3707_110)">
<path d="M57.4656 57.3333H55.7954V60.6666H40.7641V62.3333H55.7954V64.8333C55.7954 66.2139 54.6737 67.3333 53.2902 67.3333H34.9186C34.0236 67.332 33.1967 66.856 32.7473 66.0833L31.301 66.9166C32.0497 68.2036 33.4274 68.9971 34.9186 68.9999H53.2902C55.5952 68.9971 57.4627 67.1335 57.4656 64.8333V57.3333Z" fill="url(#paint1_linear_3707_110)"/>
<path d="M43.2693 64H44.9395V65.6667H43.2693V64Z" fill="url(#paint2_linear_3707_110)"/>
<path d="M48.2797 41.5V39.8333H45.7321C45.3158 34.5155 41.0825 30.2911 35.7536 29.8757V27.3333H34.0835V29.8757C33.5208 29.9188 32.9626 30.0059 32.4134 30.1357V25.6667H45.7745V24H32.4134V23.1667C32.4134 21.7861 33.5351 20.6667 34.9186 20.6667H53.2902C53.9002 20.6667 54.4894 20.8888 54.9469 21.2917L56.0519 20.0417C55.2894 19.3699 54.3071 18.9996 53.2902 19H34.9186C32.6136 19.0028 30.7461 20.8665 30.7432 23.1667V30.6667C26.9829 32.2385 24.4202 35.7773 24.105 39.8333H21.5574V41.5H24.1071C24.501 46.828 28.7444 51.0654 34.0835 51.4618V54H35.7536V51.4618C41.0927 51.0654 45.3362 46.828 45.7301 41.5H48.2797ZM34.0835 48.1667V49.7951C32.9186 49.6905 31.785 49.3638 30.7432 48.8332V47.3333C30.7432 45.0323 32.6127 43.1667 34.9186 43.1667C37.2244 43.1667 39.0939 45.0323 39.0939 47.3333V48.8332C38.0525 49.3646 36.9186 49.6917 35.7536 49.7975V48.1667H34.0835ZM32.4134 39C32.4134 37.6194 33.5351 36.5 34.9186 36.5C36.3021 36.5 37.4238 37.6194 37.4238 39C37.4238 40.3806 36.3021 41.5 34.9186 41.5C33.5351 41.5 32.4134 40.3806 32.4134 39ZM41.0422 47.5002C40.9521 47.5832 40.8558 47.6499 40.7641 47.7268V47.3333C40.762 45.1564 39.5453 43.1618 37.6085 42.16C38.95 41.0325 39.4422 39.1884 38.8407 37.5445C38.2393 35.9002 36.6723 34.8065 34.9186 34.8065C33.1648 34.8065 31.5979 35.9002 30.9964 37.5445C30.395 39.1884 30.8871 41.0325 32.2286 42.16C30.2918 43.1618 29.0751 45.1564 29.0731 47.3333V47.7309C28.9805 47.6552 28.8843 47.584 28.795 47.5042C27.0645 45.9556 25.986 43.8104 25.7772 41.5H27.4029V39.8333H25.7752C26.1833 35.4339 29.6749 31.9496 34.0835 31.5423V33.1667H35.7536V31.5423C40.1622 31.9496 43.6538 35.4339 44.062 39.8333H42.4342V41.5H44.0599C43.8512 43.8104 42.7727 45.9556 41.0422 47.5042V47.5002Z" fill="url(#paint3_linear_3707_110)"/>
<path d="M66.6514 33.9999C67.1125 33.9999 67.4864 33.6268 67.4864 33.1666V23.1666C67.4864 22.7064 67.1125 22.3333 66.6514 22.3333H48.2797C47.8186 22.3333 47.4447 22.7064 47.4447 23.1666V33.1666C47.4447 33.6268 47.8186 33.9999 48.2797 33.9999H66.6514ZM49.1148 23.9999H65.8163V32.3333H49.1148V23.9999Z" fill="url(#paint4_linear_3707_110)"/>
<path d="M50.785 25.6667H54.1253V27.3334H50.785V25.6667Z" fill="url(#paint5_linear_3707_110)"/>
<path d="M55.7954 25.6667H64.1461V27.3334H55.7954V25.6667Z" fill="url(#paint6_linear_3707_110)"/>
<path d="M50.785 29H64.1461V30.6667H50.785V29Z" fill="url(#paint7_linear_3707_110)"/>
<path d="M66.5037 35.6667C65.8571 35.668 65.2332 35.9048 64.75 36.3333L57.4655 42.7419V35.6667H55.7954V44.0001H56.0368L51.2861 48.1834C48.1953 48.36 45.7782 50.9105 45.7745 54.0001V55.4702C45.7778 56.297 45.3093 57.0543 44.5664 57.4209C44.2194 57.5934 44.0371 57.9816 44.126 58.358C44.2149 58.7344 44.5517 59.0005 44.9394 59.0001H50.785C53.881 58.9964 56.4368 56.5843 56.6138 53.5L68.4936 40.0649C69.1831 39.2845 69.3507 38.1733 68.9213 37.2248C68.4923 36.2763 67.5464 35.6667 66.5037 35.6667ZM50.785 57.3334H46.966C47.2812 56.7629 47.4459 56.1217 47.4447 55.4702V54.0001C47.4475 51.8293 49.1177 50.023 51.2861 49.8468L54.9469 53.5C54.7707 55.6639 52.9603 57.331 50.785 57.3334ZM67.241 38.9626L55.7579 51.9501L52.8392 49.0383L65.8538 37.5784C66.2432 37.2374 66.8308 37.2565 67.1973 37.6219C67.5635 37.9877 67.5827 38.5741 67.241 38.9626Z" fill="url(#paint8_linear_3707_110)"/>
<path d="M19.8873 64.8333H38.2589C38.72 64.8333 39.0939 64.4601 39.0939 63.9999V57.3333C39.0939 56.873 38.72 56.4999 38.2589 56.4999H32.4134V52.3333H30.7432V56.4999H19.8873C19.4261 56.4999 19.0522 56.873 19.0522 57.3333V63.9999C19.0522 64.4601 19.4261 64.8333 19.8873 64.8333ZM20.7223 58.1666H37.4238V63.1666H20.7223V58.1666Z" fill="url(#paint9_linear_3707_110)"/>
<path d="M22.3925 59.8333H26.5679V61.4999H22.3925V59.8333Z" fill="url(#paint10_linear_3707_110)"/>
<path d="M28.238 59.8333H35.7537V61.4999H28.238V59.8333Z" fill="url(#paint11_linear_3707_110)"/>
<path d="M19.8873 30.6666H28.238C28.6992 30.6666 29.0731 30.2935 29.0731 29.8333V23.1666C29.0731 22.7064 28.6992 22.3333 28.238 22.3333H19.8873C19.4261 22.3333 19.0522 22.7064 19.0522 23.1666V29.8333C19.0522 30.2935 19.4261 30.6666 19.8873 30.6666ZM20.7223 23.9999H27.4029V28.9999H20.7223V23.9999Z" fill="url(#paint12_linear_3707_110)"/>
<path d="M22.3925 25.6667H25.7328V27.3334H22.3925V25.6667Z" fill="url(#paint13_linear_3707_110)"/>
</g>
</g>
<defs>
<linearGradient id="paint0_linear_3707_110" x1="3.27827e-07" y1="44" x2="88.0004" y2="44" gradientUnits="userSpaceOnUse">
<stop stop-color="#874FFF"/>
<stop offset="0.515625" stop-color="#FF6068"/>
<stop offset="1" stop-color="#FEB14B"/>
</linearGradient>
<linearGradient id="paint1_linear_3707_110" x1="31.301" y1="63.1666" x2="57.4656" y2="63.1666" gradientUnits="userSpaceOnUse">
<stop stop-color="#874FFF"/>
<stop offset="0.515625" stop-color="#FF6068"/>
<stop offset="1" stop-color="#FEB14B"/>
</linearGradient>
<linearGradient id="paint2_linear_3707_110" x1="43.2693" y1="64.8333" x2="44.9395" y2="64.8333" gradientUnits="userSpaceOnUse">
<stop stop-color="#874FFF"/>
<stop offset="0.515625" stop-color="#FF6068"/>
<stop offset="1" stop-color="#FEB14B"/>
</linearGradient>
<linearGradient id="paint3_linear_3707_110" x1="21.5574" y1="36.5" x2="56.0519" y2="36.5" gradientUnits="userSpaceOnUse">
<stop stop-color="#874FFF"/>
<stop offset="0.515625" stop-color="#FF6068"/>
<stop offset="1" stop-color="#FEB14B"/>
</linearGradient>
<linearGradient id="paint4_linear_3707_110" x1="47.4447" y1="28.1666" x2="67.4864" y2="28.1666" gradientUnits="userSpaceOnUse">
<stop stop-color="#874FFF"/>
<stop offset="0.515625" stop-color="#FF6068"/>
<stop offset="1" stop-color="#FEB14B"/>
</linearGradient>
<linearGradient id="paint5_linear_3707_110" x1="50.785" y1="26.5001" x2="54.1253" y2="26.5001" gradientUnits="userSpaceOnUse">
<stop stop-color="#874FFF"/>
<stop offset="0.515625" stop-color="#FF6068"/>
<stop offset="1" stop-color="#FEB14B"/>
</linearGradient>
<linearGradient id="paint6_linear_3707_110" x1="55.7954" y1="26.5001" x2="64.1461" y2="26.5001" gradientUnits="userSpaceOnUse">
<stop stop-color="#874FFF"/>
<stop offset="0.515625" stop-color="#FF6068"/>
<stop offset="1" stop-color="#FEB14B"/>
</linearGradient>
<linearGradient id="paint7_linear_3707_110" x1="50.785" y1="29.8333" x2="64.1461" y2="29.8333" gradientUnits="userSpaceOnUse">
<stop stop-color="#874FFF"/>
<stop offset="0.515625" stop-color="#FF6068"/>
<stop offset="1" stop-color="#FEB14B"/>
</linearGradient>
<linearGradient id="paint8_linear_3707_110" x1="44.1036" y1="47.3334" x2="69.1565" y2="47.3334" gradientUnits="userSpaceOnUse">
<stop stop-color="#874FFF"/>
<stop offset="0.515625" stop-color="#FF6068"/>
<stop offset="1" stop-color="#FEB14B"/>
</linearGradient>
<linearGradient id="paint9_linear_3707_110" x1="19.0522" y1="58.5833" x2="39.0939" y2="58.5833" gradientUnits="userSpaceOnUse">
<stop stop-color="#874FFF"/>
<stop offset="0.515625" stop-color="#FF6068"/>
<stop offset="1" stop-color="#FEB14B"/>
</linearGradient>
<linearGradient id="paint10_linear_3707_110" x1="22.3925" y1="60.6666" x2="26.5679" y2="60.6666" gradientUnits="userSpaceOnUse">
<stop stop-color="#874FFF"/>
<stop offset="0.515625" stop-color="#FF6068"/>
<stop offset="1" stop-color="#FEB14B"/>
</linearGradient>
<linearGradient id="paint11_linear_3707_110" x1="28.238" y1="60.6666" x2="35.7537" y2="60.6666" gradientUnits="userSpaceOnUse">
<stop stop-color="#874FFF"/>
<stop offset="0.515625" stop-color="#FF6068"/>
<stop offset="1" stop-color="#FEB14B"/>
</linearGradient>
<linearGradient id="paint12_linear_3707_110" x1="19.0522" y1="26.4999" x2="29.0731" y2="26.4999" gradientUnits="userSpaceOnUse">
<stop stop-color="#874FFF"/>
<stop offset="0.515625" stop-color="#FF6068"/>
<stop offset="1" stop-color="#FEB14B"/>
</linearGradient>
<linearGradient id="paint13_linear_3707_110" x1="22.3925" y1="26.5001" x2="25.7328" y2="26.5001" gradientUnits="userSpaceOnUse">
<stop stop-color="#874FFF"/>
<stop offset="0.515625" stop-color="#FF6068"/>
<stop offset="1" stop-color="#FEB14B"/>
</linearGradient>
<clipPath id="clip0_3707_110">
<rect width="88" height="88" fill="white"/>
</clipPath>
<clipPath id="clip1_3707_110">
<rect width="50" height="50" fill="white" transform="translate(19 19)"/>
</clipPath>
</defs>
</svg>
