<svg width="88" height="88" viewBox="0 0 88 88" fill="none" xmlns="http://www.w3.org/2000/svg">
<g clip-path="url(#clip0_3712_272)">
<path d="M44.0803 88H43.9202C38.0622 88.0059 32.2634 86.8301 26.8704 84.543C21.6404 82.338 16.8898 79.1353 12.885 75.1133C8.86159 71.1085 5.6587 66.3568 3.45533 61.125C1.15591 55.7095 -0.0196034 49.8834 0.000247277 44C-0.0180992 38.1156 1.158 32.2887 3.45728 26.8721C5.66058 21.6412 8.8635 16.8903 12.887 12.8867C16.8902 8.86242 21.6416 5.65939 26.8733 3.45706C32.2581 1.1695 38.05 -0.00639244 43.9006 2.61355e-05H44.0999C49.9494 -0.00585075 55.7403 1.17003 61.1243 3.45706C66.3552 5.66036 71.106 8.86328 75.1096 12.8867C79.1332 16.8907 82.3366 21.6414 84.5413 26.8721C86.8405 32.2888 88.0172 38.1155 88.0002 44C88.0175 49.8835 86.8411 55.7093 84.5422 61.125C82.3366 66.3552 79.1333 71.1057 75.1106 75.1104C71.107 79.1338 66.3562 82.3368 61.1252 84.5401C55.7346 86.8296 49.937 88.0065 44.0803 88ZM44.0002 4.00003C33.401 4.03063 23.2451 8.25519 15.7502 15.75C8.25542 23.2449 4.03085 33.4008 4.00025 44C4.02954 54.5997 8.25318 64.7569 15.7483 72.252C23.2434 79.7471 33.4006 83.9707 44.0002 84C54.6003 83.972 64.7578 79.7484 72.2532 72.253C79.7486 64.7576 83.9723 54.6001 84.0002 44C83.971 33.4004 79.7473 23.2432 72.2522 15.7481C64.7571 8.25296 54.5999 4.02932 44.0002 4.00003Z" fill="url(#paint0_linear_3712_272)"/>
<g clip-path="url(#clip1_3712_272)">
<path d="M63.3567 44.0102V44C63.3567 54.6686 54.6789 63.3567 44 63.3567V61.3761C44 61.1617 43.7652 61.0392 43.5917 61.1617L38.2522 64.837C38.0991 64.9391 38.0991 65.1637 38.2522 65.276L43.5917 68.9514C43.7652 69.0739 44 68.9514 44 68.737V66.7564C56.5472 66.7564 66.7462 56.5574 66.7462 44.0102H63.3567Z" fill="url(#paint1_linear_3712_272)"/>
<path d="M49.7479 22.724L44.4084 19.0487C44.2349 18.9262 44.0001 19.0487 44.0001 19.2631V21.2437C31.4529 21.2539 21.2539 31.4529 21.2539 44H24.6434C24.6434 33.3314 33.3314 24.6433 44.0001 24.6433V26.6239C44.0001 26.8383 44.2349 26.9608 44.4084 26.8383L49.7479 23.163C49.901 23.0609 49.901 22.8363 49.7479 22.724Z" fill="url(#paint2_linear_3712_272)"/>
<path d="M57.3333 41.7131L54.6993 41.2639C54.4441 40.2736 54.0459 39.3139 53.515 38.4155L55.0668 36.2409C55.3527 35.8326 55.3119 35.2915 54.9545 34.9342L54.0153 33.9949L53.076 33.0557C52.7187 32.7392 52.1776 32.6983 51.7795 32.974L49.6049 34.5258C48.7065 33.9949 47.7468 33.5967 46.7565 33.3517L46.3073 30.7177C46.2257 30.2277 45.7969 29.8704 45.317 29.8806H44H42.6831C42.193 29.8806 41.7744 30.2379 41.6928 30.7279L41.2436 33.3619C40.2328 33.6172 39.2528 34.0255 38.3339 34.587L36.1798 33.0557C35.7714 32.7698 35.2303 32.8106 34.873 33.168L33.9337 34.1072L32.9945 35.0465C32.6474 35.3936 32.5963 35.9449 32.8822 36.3532L34.4442 38.5482C33.9133 39.4466 33.5356 40.4165 33.2804 41.3966L30.6566 41.8152C30.1665 41.8968 29.8092 42.3256 29.8194 42.8055V44.1225L29.8296 45.4292C29.8296 45.9193 30.187 46.3379 30.677 46.4195L33.3314 46.8687C33.5968 47.859 33.995 48.8085 34.5259 49.6967L32.9945 51.8508C32.7086 52.2592 32.7495 52.8003 33.1068 53.1576L34.046 54.0969L34.9853 55.0361C35.3324 55.3832 35.8837 55.4343 36.2921 55.1484L38.4871 53.5864C39.3855 54.1173 40.3554 54.495 41.3354 54.7503L41.7744 57.3638C41.8561 57.8539 42.2849 58.2112 42.7647 58.201H44.0817H45.3987C45.8888 58.201 46.3073 57.8437 46.389 57.3536L46.8382 54.6992C47.7979 54.444 48.7473 54.056 49.6151 53.5456L51.7897 55.0974C52.1981 55.3832 52.7391 55.3424 53.0965 54.9851L54.0357 54.0458L54.975 53.1066C55.3221 52.7595 55.3731 52.2082 55.0873 51.7998L53.5355 49.6252C54.0663 48.7268 54.4645 47.7672 54.7095 46.7769L57.3435 46.3277C57.8335 46.246 58.1909 45.8172 58.1807 45.3374V44.0204V42.7034C58.1807 42.2133 57.8233 41.7948 57.3333 41.7131ZM47.3895 47.2873C45.5621 49.1148 42.5912 49.125 40.7637 47.2873C38.9363 45.4599 38.9363 42.489 40.7637 40.6615C42.5912 38.8341 45.5621 38.8239 47.3895 40.6615C49.217 42.489 49.2272 45.4599 47.3895 47.2873Z" fill="url(#paint3_linear_3712_272)"/>
</g>
</g>
<defs>
<linearGradient id="paint0_linear_3712_272" x1="3.27827e-07" y1="44" x2="88.0004" y2="44" gradientUnits="userSpaceOnUse">
<stop stop-color="#874FFF"/>
<stop offset="0.515625" stop-color="#FF6068"/>
<stop offset="1" stop-color="#FEB14B"/>
</linearGradient>
<linearGradient id="paint1_linear_3712_272" x1="38.1374" y1="56.5" x2="66.7462" y2="56.5" gradientUnits="userSpaceOnUse">
<stop stop-color="#874FFF"/>
<stop offset="0.515625" stop-color="#FF6068"/>
<stop offset="1" stop-color="#FEB14B"/>
</linearGradient>
<linearGradient id="paint2_linear_3712_272" x1="21.2539" y1="31.5" x2="49.8627" y2="31.5" gradientUnits="userSpaceOnUse">
<stop stop-color="#874FFF"/>
<stop offset="0.515625" stop-color="#FF6068"/>
<stop offset="1" stop-color="#FEB14B"/>
</linearGradient>
<linearGradient id="paint3_linear_3712_272" x1="29.8192" y1="44.0408" x2="58.1809" y2="44.0408" gradientUnits="userSpaceOnUse">
<stop stop-color="#874FFF"/>
<stop offset="0.515625" stop-color="#FF6068"/>
<stop offset="1" stop-color="#FEB14B"/>
</linearGradient>
<clipPath id="clip0_3712_272">
<rect width="88" height="88" fill="white"/>
</clipPath>
<clipPath id="clip1_3712_272">
<rect width="50" height="50" fill="white" transform="translate(19 19)"/>
</clipPath>
</defs>
</svg>
