<svg width="88" height="88" viewBox="0 0 88 88" fill="none" xmlns="http://www.w3.org/2000/svg">
<g clip-path="url(#clip0_3709_120)">
<path d="M26.8726 84.5406C21.644 82.3321 16.8938 79.1295 12.8858 75.1105C8.86788 71.1024 5.66556 66.353 3.45593 61.1255C1.16316 55.7074 -0.0127133 49.8823 -0.000903842 43.999C-0.0132068 38.1155 1.16197 32.2901 3.45464 26.8716C5.66421 21.6436 8.86695 16.8937 12.885 12.8849C16.8934 8.86701 21.6435 5.66505 26.8717 3.45662C32.2899 1.16295 38.1153 -0.0130403 43.999 -0.000883261C49.8821 -0.0129 55.707 1.16309 61.1246 3.45662C66.3523 5.66511 71.1018 8.86708 75.1096 12.8849C79.1285 16.893 82.3309 21.6431 84.5395 26.8716C86.8333 32.2898 88.01 38.1153 87.9989 43.999C88.0097 49.8822 86.833 55.707 84.5395 61.1247C82.3308 66.3527 79.1284 71.1022 75.1096 75.1096C71.1022 79.1285 66.3526 82.3311 61.1246 84.5397C55.7069 86.8331 49.8821 88.0097 43.999 87.999C38.1156 88.01 32.2906 86.8337 26.8726 84.5406ZM3.99862 43.999C4.01096 54.6039 8.22934 64.7709 15.7282 72.2696C23.2271 79.7683 33.3941 83.9863 43.999 83.9985C54.6039 83.9863 64.7709 79.7683 72.2698 72.2696C79.7687 64.7709 83.9871 54.6039 83.9994 43.999C83.9873 33.394 79.7691 23.2268 72.2702 15.7279C64.7713 8.22901 54.604 4.01083 43.999 3.99872C33.3939 4.0106 23.2267 8.22872 15.7278 15.7277C8.22883 23.2266 4.0105 33.3939 3.99862 43.999ZM30.3431 62.919C29.6683 62.8733 29.0392 62.5626 28.5926 62.0547C28.146 61.5468 27.9182 60.8828 27.9592 60.2077C27.9182 59.5326 28.146 58.8687 28.5926 58.3608C29.0392 57.8528 29.6683 57.5421 30.3431 57.4965H57.6557C58.3305 57.5421 58.9597 57.8528 59.4063 58.3608C59.8529 58.8687 60.0807 59.5326 60.0396 60.2077C60.0797 60.8826 59.8518 61.546 59.4054 62.0537C58.959 62.5614 58.3302 62.8724 57.6557 62.919H30.3431ZM43.999 53.8128H28.951L25.0447 40.0601C25.0054 40.0623 24.9662 40.0623 24.9269 40.0601C24.1606 40.0705 23.4212 39.7762 22.8717 39.2419C22.3223 38.7076 22.0076 37.9771 21.9965 37.2107C22.002 36.8309 22.0823 36.4558 22.2328 36.107C22.3833 35.7581 22.6009 35.4424 22.8735 35.1777C23.146 34.913 23.4678 34.7046 23.8209 34.5643C24.174 34.4241 24.5514 34.3548 24.9312 34.3604C25.698 34.3498 26.4375 34.6441 26.9873 35.1786C27.5371 35.7131 27.8523 36.444 27.8634 37.2107C27.8625 37.5099 27.8137 37.807 27.719 38.0907L34.7861 42.1088L42.3808 29.8636C41.9795 29.6103 41.6487 29.2597 41.4192 28.8443C41.1896 28.4289 41.0686 27.9622 41.0677 27.4876C41.079 26.7213 41.3942 25.9908 41.9438 25.4567C42.4935 24.9226 43.2327 24.6285 43.999 24.6391C44.7655 24.6287 45.5047 24.9231 46.0542 25.4576C46.6037 25.9921 46.9186 26.7229 46.9295 27.4894C46.927 27.9637 46.8052 28.4297 46.5758 28.8448C46.3464 29.26 46.0166 29.6109 45.6163 29.8654L53.2128 42.1106L60.2781 38.0925C60.1822 37.8091 60.1339 37.5117 60.1355 37.2125C60.1464 36.446 60.4612 35.7152 61.0107 35.1807C61.5602 34.6463 62.2994 34.3518 63.0659 34.3622C63.8324 34.3518 64.5716 34.6463 65.1211 35.1807C65.6706 35.7152 65.9855 36.446 65.9964 37.2125C65.9853 37.9788 65.6702 38.7094 65.1207 39.2437C64.5712 39.778 63.8323 40.0723 63.0659 40.0619C63.0254 40.0619 62.9895 40.0619 62.9499 40.0619L59.0428 53.8145L43.999 53.8128Z" fill="url(#paint0_linear_3709_120)"/>
</g>
<defs>
<linearGradient id="paint0_linear_3709_120" x1="-0.000999123" y1="43.999" x2="87.999" y2="43.999" gradientUnits="userSpaceOnUse">
<stop stop-color="#874FFF"/>
<stop offset="0.515625" stop-color="#FF6068"/>
<stop offset="1" stop-color="#FEB14B"/>
</linearGradient>
<clipPath id="clip0_3709_120">
<rect width="88" height="88" fill="white"/>
</clipPath>
</defs>
</svg>
