<svg width="36" height="35" viewBox="0 0 36 35" fill="none" xmlns="http://www.w3.org/2000/svg">
<path d="M17.9355 5V34C17.9355 34.5523 18.3832 35 18.9355 35H21.4516C22.0039 35 22.4516 34.5523 22.4516 34V20V5H17.9355Z" fill="white"/>
<path d="M9.90323 10C9.35094 10 8.90323 10.4477 8.90323 11V34C8.90323 34.5523 9.35094 35 9.90323 35H12.4194C12.9716 35 13.4194 34.5523 13.4194 34V11C13.4194 10.4477 12.9716 10 12.4194 10H9.90323Z" fill="white"/>
<path d="M8.90323 1C8.90323 0.447715 9.35094 0 9.90323 0H12.4194C12.9716 0 13.4194 0.447715 13.4194 1V4C13.4194 4.55228 12.9716 5 12.4194 5H9.90323C9.35094 5 8.90323 4.55228 8.90323 4V2.5V1Z" fill="white"/>
<path d="M6.64516 5H3.74312C2.76056 5 1.8691 4.42444 1.46469 3.52897V3.52897C1.16926 2.8748 1.16926 2.1252 1.46469 1.47103V1.47103C1.8691 0.575555 2.76056 0 3.74312 0H6.64516V5Z" fill="white"/>
<path d="M17.9355 5H22.4516H32.6312C33.3384 5 34.0124 4.70051 34.4864 4.17572V4.17572C35.3461 3.22395 35.3461 1.77605 34.4864 0.824284V0.824284C34.0124 0.299494 33.3384 0 32.6312 0H15.6774V5H17.9355Z" fill="white"/>
<path d="M17.9355 5V34C17.9355 34.5523 18.3832 35 18.9355 35H21.4516C22.0039 35 22.4516 34.5523 22.4516 34V20V5M17.9355 5H22.4516M17.9355 5H15.6774V0H32.6312C33.3384 0 34.0124 0.299494 34.4864 0.824284V0.824284C35.3461 1.77605 35.3461 3.22395 34.4864 4.17572V4.17572C34.0124 4.70051 33.3384 5 32.6312 5H22.4516M6.64516 5H3.74312C2.76056 5 1.8691 4.42444 1.46469 3.52897V3.52897C1.16926 2.8748 1.16926 2.1252 1.46469 1.47103V1.47103C1.8691 0.575555 2.76056 0 3.74312 0H6.64516V5ZM8.90323 2.5V4C8.90323 4.55228 9.35094 5 9.90323 5H12.4194C12.9716 5 13.4194 4.55228 13.4194 4V1C13.4194 0.447715 12.9716 0 12.4194 0H9.90323C9.35094 0 8.90323 0.447715 8.90323 1V2.5ZM13.4194 11V34C13.4194 34.5523 12.9716 35 12.4194 35H9.90323C9.35094 35 8.90323 34.5523 8.90323 34V11C8.90323 10.4477 9.35094 10 9.90323 10H12.4194C12.9716 10 13.4194 10.4477 13.4194 11Z" stroke="white"/>
</svg>
