<svg width="88" height="88" viewBox="0 0 88 88" fill="none" xmlns="http://www.w3.org/2000/svg">
<g clip-path="url(#clip0_3712_163)">
<path d="M44.0803 88H43.9202C38.0622 88.0059 32.2634 86.8301 26.8704 84.543C21.6404 82.338 16.8898 79.1353 12.885 75.1133C8.86159 71.1085 5.6587 66.3568 3.45533 61.125C1.15591 55.7095 -0.0196034 49.8834 0.000247277 44C-0.0180992 38.1156 1.158 32.2887 3.45728 26.8721C5.66058 21.6412 8.8635 16.8903 12.887 12.8867C16.8902 8.86242 21.6416 5.65939 26.8733 3.45706C32.2581 1.1695 38.05 -0.00639244 43.9006 2.61355e-05H44.0999C49.9494 -0.00585075 55.7403 1.17003 61.1243 3.45706C66.3552 5.66036 71.106 8.86328 75.1096 12.8867C79.1332 16.8907 82.3366 21.6414 84.5413 26.8721C86.8405 32.2888 88.0172 38.1155 88.0002 44C88.0175 49.8835 86.8411 55.7093 84.5422 61.125C82.3366 66.3552 79.1333 71.1057 75.1106 75.1104C71.107 79.1338 66.3562 82.3368 61.1252 84.5401C55.7346 86.8296 49.937 88.0065 44.0803 88ZM44.0002 4.00003C33.401 4.03063 23.2451 8.25519 15.7502 15.75C8.25542 23.2449 4.03085 33.4008 4.00025 44C4.02954 54.5997 8.25318 64.7569 15.7483 72.252C23.2434 79.7471 33.4006 83.9707 44.0002 84C54.6003 83.972 64.7578 79.7484 72.2532 72.253C79.7486 64.7576 83.9723 54.6001 84.0002 44C83.971 33.4004 79.7473 23.2432 72.2522 15.7481C64.7571 8.25296 54.5999 4.02932 44.0002 4.00003Z" fill="url(#paint0_linear_3712_163)"/>
<path d="M53.8522 58.5486H30.5548V25.1344H53.8458V27.6341H56.9764V24.4521C56.9784 21.4546 54.5174 19 51.522 19H32.8828C29.8832 19 27.4286 21.4546 27.4286 24.4521V63.5458C27.4286 66.5476 29.8832 69 32.8828 69H51.522C54.5174 69 56.9784 66.5476 56.9784 63.5458V58.4906H53.8522V58.5486ZM42.1992 66.2707C40.8174 66.2707 39.7017 65.1529 39.7017 63.7733C39.7017 62.3893 40.8175 61.2736 42.1992 61.2736C43.5831 61.2736 44.7011 62.3914 44.7011 63.7733C44.7011 65.1529 43.5832 66.2707 42.1992 66.2707Z" fill="url(#paint1_linear_3712_163)"/>
<path d="M40.2124 28.488H33.224V32.7493H40.2124V28.488Z" fill="url(#paint2_linear_3712_163)"/>
<path d="M40.2124 39.3987H33.224V43.66H40.2124V39.3987Z" fill="url(#paint3_linear_3712_163)"/>
<path d="M40.2124 50.8179H33.224V55.077H40.2124V50.8179Z" fill="url(#paint4_linear_3712_163)"/>
<path d="M65.016 41.2718C64.7692 39.9801 64.2693 38.785 63.5613 37.74L66.0674 35.2318L63.5077 32.6806L61.0058 35.1845C59.9651 34.4722 58.7636 33.9787 57.4762 33.7298V30.1787H53.8544V33.7298C52.5649 33.9787 51.374 34.4743 50.3227 35.1845L47.8252 32.6806L45.2655 35.2339L47.7673 37.7421C47.0614 38.787 46.5636 39.9822 46.3169 41.2717H42.7701V44.8914H46.3168C46.5635 46.1767 47.0635 47.3718 47.7693 48.421L45.2654 50.925L47.8251 53.474L50.3291 50.9721C51.3762 51.6844 52.5712 52.1801 53.8608 52.4311V55.9758H57.4826V52.4291C58.7699 52.1823 59.9629 51.6823 61.0122 50.9743L63.514 53.4762L66.0738 50.925L63.5676 48.421C64.2757 47.3761 64.7735 46.1789 65.0224 44.8893H68.5713V41.2718H65.016ZM55.6696 47.02C53.4918 47.02 51.7237 45.2606 51.7237 43.0806C51.7237 40.9028 53.4917 39.1326 55.6696 39.1326C57.8496 39.1326 59.609 40.9006 59.609 43.0806C59.609 45.2626 57.8452 47.02 55.6696 47.02Z" fill="url(#paint5_linear_3712_163)"/>
</g>
<defs>
<linearGradient id="paint0_linear_3712_163" x1="3.27827e-07" y1="44" x2="88.0004" y2="44" gradientUnits="userSpaceOnUse">
<stop stop-color="#874FFF"/>
<stop offset="0.515625" stop-color="#FF6068"/>
<stop offset="1" stop-color="#FEB14B"/>
</linearGradient>
<linearGradient id="paint1_linear_3712_163" x1="27.4286" y1="44" x2="56.9784" y2="44" gradientUnits="userSpaceOnUse">
<stop stop-color="#874FFF"/>
<stop offset="0.515625" stop-color="#FF6068"/>
<stop offset="1" stop-color="#FEB14B"/>
</linearGradient>
<linearGradient id="paint2_linear_3712_163" x1="33.224" y1="30.6187" x2="40.2124" y2="30.6187" gradientUnits="userSpaceOnUse">
<stop stop-color="#874FFF"/>
<stop offset="0.515625" stop-color="#FF6068"/>
<stop offset="1" stop-color="#FEB14B"/>
</linearGradient>
<linearGradient id="paint3_linear_3712_163" x1="33.224" y1="41.5293" x2="40.2124" y2="41.5293" gradientUnits="userSpaceOnUse">
<stop stop-color="#874FFF"/>
<stop offset="0.515625" stop-color="#FF6068"/>
<stop offset="1" stop-color="#FEB14B"/>
</linearGradient>
<linearGradient id="paint4_linear_3712_163" x1="33.224" y1="52.9474" x2="40.2124" y2="52.9474" gradientUnits="userSpaceOnUse">
<stop stop-color="#874FFF"/>
<stop offset="0.515625" stop-color="#FF6068"/>
<stop offset="1" stop-color="#FEB14B"/>
</linearGradient>
<linearGradient id="paint5_linear_3712_163" x1="42.7701" y1="43.0772" x2="68.5713" y2="43.0772" gradientUnits="userSpaceOnUse">
<stop stop-color="#874FFF"/>
<stop offset="0.515625" stop-color="#FF6068"/>
<stop offset="1" stop-color="#FEB14B"/>
</linearGradient>
<clipPath id="clip0_3712_163">
<rect width="88" height="88" fill="white"/>
</clipPath>
</defs>
</svg>
