<svg width="88" height="88" viewBox="0 0 88 88" fill="none" xmlns="http://www.w3.org/2000/svg">
<g clip-path="url(#clip0_3709_117)">
<path d="M26.8726 84.5406C21.6439 82.3321 16.8938 79.1295 12.8858 75.1105C8.86787 71.1024 5.66555 66.353 3.45592 61.1255C1.16316 55.7074 -0.0127209 49.8823 -0.000911471 43.999C-0.0132144 38.1155 1.16196 32.2901 3.45463 26.8716C5.6642 21.6436 8.86694 16.8937 12.885 12.8849C16.8934 8.86701 21.6435 5.66505 26.8717 3.45662C32.2899 1.16295 38.1153 -0.0130403 43.999 -0.000883261C49.8821 -0.0129 55.707 1.16309 61.1246 3.45662C66.3523 5.66511 71.1018 8.86708 75.1096 12.8849C79.1285 16.893 82.3309 21.6431 84.5395 26.8716C86.8333 32.2898 88.01 38.1153 87.9989 43.999C88.0097 49.8822 86.833 55.707 84.5395 61.1247C82.3308 66.3527 79.1284 71.1022 75.1096 75.1096C71.1022 79.1285 66.3526 82.3311 61.1246 84.5397C55.7069 86.8331 49.8821 88.0097 43.999 87.999C38.1156 88.01 32.2906 86.8337 26.8726 84.5406ZM3.99861 43.999C4.01096 54.6039 8.22933 64.7709 15.7282 72.2696C23.2271 79.7683 33.3941 83.9863 43.999 83.9985C54.6039 83.9863 64.7709 79.7683 72.2698 72.2696C79.7687 64.7709 83.987 54.6039 83.9994 43.999C83.9873 33.394 79.7691 23.2268 72.2702 15.7279C64.7713 8.22901 54.604 4.01083 43.999 3.99872C33.3939 4.0106 23.2267 8.22872 15.7278 15.7277C8.22883 23.2266 4.01049 33.3939 3.99861 43.999ZM37.393 65.383C35.7677 65.3807 34.2093 64.734 33.06 63.5847C31.9108 62.4354 31.2641 60.8774 31.2618 59.2521V41.6521C31.2616 41.3975 31.1604 41.1534 30.9804 40.9734C30.8004 40.7934 30.5564 40.6922 30.3019 40.692H25.1581C24.9036 40.6922 24.6599 40.7935 24.4801 40.9735C24.3002 41.1535 24.199 41.3976 24.199 41.6521V60.3133C24.199 60.5679 24.3002 60.812 24.4801 60.9922C24.6599 61.1723 24.9035 61.2738 25.1581 61.2743H28.129C28.4204 61.2733 28.7006 61.3881 28.9075 61.5934C29.1144 61.7986 29.2314 62.0776 29.2328 62.369C29.2329 62.5139 29.2044 62.6575 29.149 62.7914C29.0936 62.9254 29.0122 63.0471 28.9097 63.1496C28.8072 63.2521 28.6853 63.3333 28.5513 63.3888C28.4174 63.4442 28.2739 63.4727 28.129 63.4725H25.1581C24.3208 63.4702 23.5187 63.1365 22.9267 62.5443C22.3348 61.9522 22.0011 61.1498 21.999 60.3125V41.6503C22.0011 40.813 22.3348 40.0106 22.9267 39.4184C23.5187 38.8263 24.3208 38.4926 25.1581 38.4902H30.2929C30.8824 38.4915 31.46 38.6568 31.9609 38.9676C32.4618 39.2784 32.8664 39.7225 33.1292 40.2502C33.2049 40.2062 33.2863 40.1731 33.3711 40.1517C33.6677 40.0637 40.6754 38.0054 40.6754 31.9677V24.2871C40.6752 24.0528 40.7498 23.8245 40.8885 23.6357C41.0272 23.4468 41.2226 23.3072 41.4462 23.2372C41.5985 23.1836 45.224 22.08 47.864 24.0187C49.536 25.2401 50.3764 27.3222 50.3764 30.2121V37.0471H59.8549C61.4802 37.0494 63.0381 37.696 64.1874 38.8453C65.3367 39.9946 65.9833 41.5527 65.9856 43.178H65.9947V43.3751C65.9931 43.4321 65.9872 43.4889 65.977 43.545L63.4462 59.4325C62.9789 63.2033 60.331 65.3848 56.1669 65.3848L37.393 65.383ZM33.4618 59.2521C33.4627 60.2943 33.8772 61.2936 34.6142 62.0306C35.3512 62.7676 36.3507 63.1821 37.393 63.183H56.1712C59.2221 63.183 60.9372 61.8093 61.2681 59.1174L63.7904 43.2774H63.8007V43.1894C63.7995 42.1471 63.385 41.1478 62.6478 40.4108C61.9107 39.6738 60.9114 39.2594 59.869 39.2585H49.2859C49.1408 39.2585 48.9975 39.2299 48.8635 39.1743C48.7295 39.1188 48.6076 39.0373 48.5051 38.9346C48.4026 38.832 48.3216 38.7101 48.2662 38.576C48.2109 38.442 48.1822 38.2983 48.1824 38.1532V30.2191C48.1824 28.064 47.6351 26.5847 46.5668 25.7945C45.4589 25.1321 44.1419 24.9122 42.8788 25.1785V31.9642C42.8788 39.6923 34.3332 42.1721 33.9662 42.2681C33.8026 42.3138 33.6301 42.3202 33.4635 42.2865L33.4618 59.2521Z" fill="url(#paint0_linear_3709_117)"/>
</g>
<defs>
<linearGradient id="paint0_linear_3709_117" x1="-0.00100675" y1="43.999" x2="87.999" y2="43.999" gradientUnits="userSpaceOnUse">
<stop stop-color="#874FFF"/>
<stop offset="0.515625" stop-color="#FF6068"/>
<stop offset="1" stop-color="#FEB14B"/>
</linearGradient>
<clipPath id="clip0_3709_117">
<rect width="88" height="88" fill="white"/>
</clipPath>
</defs>
</svg>
