<svg width="88" height="88" viewBox="0 0 88 88" fill="none" xmlns="http://www.w3.org/2000/svg">
<g clip-path="url(#clip0_3707_37)">
<path d="M44.0803 88H43.9202C38.0622 88.0059 32.2634 86.8301 26.8704 84.543C21.6404 82.338 16.8898 79.1353 12.885 75.1133C8.86159 71.1085 5.6587 66.3568 3.45533 61.125C1.15591 55.7095 -0.0196034 49.8834 0.000247277 44C-0.0180992 38.1156 1.158 32.2887 3.45728 26.8721C5.66058 21.6412 8.8635 16.8903 12.887 12.8867C16.8902 8.86242 21.6416 5.65939 26.8733 3.45706C32.2581 1.1695 38.05 -0.00639244 43.9006 2.61355e-05H44.0999C49.9494 -0.00585075 55.7403 1.17003 61.1243 3.45706C66.3552 5.66036 71.106 8.86328 75.1096 12.8867C79.1332 16.8907 82.3366 21.6414 84.5413 26.8721C86.8405 32.2888 88.0172 38.1155 88.0002 44C88.0175 49.8835 86.8411 55.7093 84.5422 61.125C82.3366 66.3552 79.1333 71.1057 75.1106 75.1104C71.107 79.1338 66.3562 82.3368 61.1252 84.5401C55.7346 86.8296 49.937 88.0065 44.0803 88ZM44.0002 4.00003C33.401 4.03063 23.2451 8.25519 15.7502 15.75C8.25542 23.2449 4.03085 33.4008 4.00025 44C4.02954 54.5997 8.25318 64.7569 15.7483 72.252C23.2434 79.7471 33.4006 83.9707 44.0002 84C54.6003 83.972 64.7578 79.7484 72.2532 72.253C79.7486 64.7576 83.9723 54.6001 84.0002 44C83.971 33.4004 79.7473 23.2432 72.2522 15.7481C64.7571 8.25296 54.5999 4.02932 44.0002 4.00003Z" fill="url(#paint0_linear_3707_37)"/>
<path d="M45.3683 24.0003C43.5014 24.0082 41.7185 24.1534 40.1498 24.4064C35.5285 25.1507 34.6895 26.7084 34.6895 29.5812V33.3752H45.6101V34.6399H34.6895H30.591C27.4172 34.6399 24.6381 36.3789 23.7688 39.6871C22.7661 43.479 22.7216 45.8452 23.7688 49.8045C24.5451 52.7517 26.3989 54.8517 29.5728 54.8517H33.3276V50.3034C33.3276 47.0176 36.4463 44.1192 40.1498 44.1192H51.0577C54.0941 44.1192 56.5181 41.8403 56.5181 39.0605V29.5812C56.5181 26.8833 54.0213 24.8567 51.0577 24.4064C49.1817 24.1218 47.2352 23.9924 45.3683 24.0003ZM39.4625 27.0518C40.5905 27.0518 41.5117 27.9053 41.5117 28.9547C41.5117 30.0003 40.5905 30.8459 39.4625 30.8459C38.3304 30.8459 37.4133 30.0003 37.4133 28.9547C37.4133 27.9053 38.3304 27.0518 39.4625 27.0518Z" fill="url(#paint1_linear_3707_37)"/>
<path d="M57.88 34.6399V39.0605C57.88 42.4877 54.6925 45.3723 51.0577 45.3723H40.1498C37.1619 45.3723 34.6895 47.7034 34.6895 50.431V59.9104C34.6895 62.6082 37.263 64.1951 40.1498 64.9691C43.6067 65.8957 46.9216 66.0631 51.0577 64.9691C53.8071 64.2435 56.5181 62.7831 56.5181 59.9104V56.1163H45.6101V54.8516H56.5181H61.9784C65.1523 54.8516 66.335 52.8335 67.4387 49.8045C68.5789 46.6861 68.5304 43.6873 67.4387 39.687C66.6544 36.8068 65.1563 34.6399 61.9784 34.6399H57.88ZM51.745 58.6457C52.8771 58.6457 53.7943 59.4912 53.7943 60.5369C53.7943 61.5863 52.8771 62.4397 51.745 62.4397C50.617 62.4397 49.6958 61.5863 49.6958 60.5369C49.6958 59.4912 50.617 58.6457 51.745 58.6457Z" fill="url(#paint2_linear_3707_37)"/>
</g>
<defs>
<linearGradient id="paint0_linear_3707_37" x1="3.27827e-07" y1="44" x2="88.0004" y2="44" gradientUnits="userSpaceOnUse">
<stop stop-color="#874FFF"/>
<stop offset="0.515625" stop-color="#FF6068"/>
<stop offset="1" stop-color="#FEB14B"/>
</linearGradient>
<linearGradient id="paint1_linear_3707_37" x1="23" y1="39.4258" x2="56.5181" y2="39.4258" gradientUnits="userSpaceOnUse">
<stop stop-color="#874FFF"/>
<stop offset="0.515625" stop-color="#FF6068"/>
<stop offset="1" stop-color="#FEB14B"/>
</linearGradient>
<linearGradient id="paint2_linear_3707_37" x1="34.6895" y1="50.184" x2="68.2758" y2="50.184" gradientUnits="userSpaceOnUse">
<stop stop-color="#874FFF"/>
<stop offset="0.515625" stop-color="#FF6068"/>
<stop offset="1" stop-color="#FEB14B"/>
</linearGradient>
<clipPath id="clip0_3707_37">
<rect width="88" height="88" fill="white"/>
</clipPath>
</defs>
</svg>
