<svg width="88" height="88" viewBox="0 0 88 88" fill="none" xmlns="http://www.w3.org/2000/svg">
<g clip-path="url(#clip0_3707_31)">
<path d="M44.0803 88H43.9202C38.0622 88.0059 32.2634 86.8301 26.8704 84.543C21.6404 82.338 16.8898 79.1353 12.885 75.1133C8.86159 71.1085 5.6587 66.3568 3.45533 61.125C1.15591 55.7095 -0.0196034 49.8834 0.000247277 44C-0.0180992 38.1156 1.158 32.2887 3.45728 26.8721C5.66058 21.6412 8.8635 16.8903 12.887 12.8867C16.8902 8.86242 21.6416 5.65939 26.8733 3.45706C32.2581 1.1695 38.05 -0.00639244 43.9006 2.61355e-05H44.0999C49.9494 -0.00585075 55.7403 1.17003 61.1243 3.45706C66.3552 5.66036 71.106 8.86328 75.1096 12.8867C79.1332 16.8907 82.3366 21.6414 84.5413 26.8721C86.8405 32.2888 88.0172 38.1155 88.0002 44C88.0175 49.8835 86.8411 55.7093 84.5422 61.125C82.3366 66.3552 79.1333 71.1057 75.1106 75.1104C71.107 79.1338 66.3562 82.3368 61.1252 84.5401C55.7346 86.8296 49.937 88.0065 44.0803 88ZM44.0002 4.00003C33.401 4.03063 23.2451 8.25519 15.7502 15.75C8.25542 23.2449 4.03085 33.4008 4.00025 44C4.02954 54.5997 8.25318 64.7569 15.7483 72.252C23.2434 79.7471 33.4006 83.9707 44.0002 84C54.6003 83.972 64.7578 79.7484 72.2532 72.253C79.7486 64.7576 83.9723 54.6001 84.0002 44C83.971 33.4004 79.7473 23.2432 72.2522 15.7481C64.7571 8.25296 54.5999 4.02932 44.0002 4.00003Z" fill="url(#paint0_linear_3707_31)"/>
<g clip-path="url(#clip1_3707_31)">
<path d="M69 40.0938H66.6562V36.9688C66.6562 36.5373 66.3064 36.1875 65.875 36.1875H64.0184L62.6719 33.4945C62.5389 33.2284 62.2663 33.0608 61.9688 33.0625H58.8438V19.7812C58.8438 19.3498 58.4939 19 58.0625 19H29.9375C29.5061 19 29.1562 19.3498 29.1562 19.7812V33.0625H26.0312C25.7352 33.0624 25.4644 33.2297 25.332 33.4945L23.9855 36.1875H22.125C21.6936 36.1875 21.3438 36.5373 21.3438 36.9688V40.0938H19V41.6562H21.3438V66.6562C21.3438 67.9507 22.3931 69 23.6875 69H64.3125C65.6069 69 66.6562 67.9507 66.6562 66.6562V41.6562H69V40.0938ZM30.7188 20.5625H57.2812V33.0625H55.7188V22.9062C55.7188 22.4748 55.3689 22.125 54.9375 22.125H33.0625C32.6311 22.125 32.2812 22.4748 32.2812 22.9062V33.0625H30.7188V20.5625ZM33.8438 33.0625V23.6875H54.1562V33.0625H33.8438ZM26.5141 34.625H29.9375H33.0625H54.9375H58.0625H61.4859L62.2672 36.1875H25.7328L26.5141 34.625ZM22.9062 37.75H24.4688H63.5312H65.0938V40.0938H22.9062V37.75ZM44 48.6875C43.137 48.6875 42.4375 47.988 42.4375 47.125C42.4375 46.262 43.137 45.5625 44 45.5625C44.863 45.5625 45.5625 46.262 45.5625 47.125C45.5625 47.988 44.863 48.6875 44 48.6875ZM65.0938 66.6562C65.0938 67.0877 64.7439 67.4375 64.3125 67.4375H44.7812V58.8438H47.9062V62.75H49.4688V58.0625C49.4688 57.6311 49.1189 57.2812 48.6875 57.2812H44.7812V54.9375H54.1562V58.1609C52.8084 58.5078 51.8125 59.7313 51.8125 61.1875C51.8125 62.9134 53.2116 64.3125 54.9375 64.3125C56.6634 64.3125 58.0625 62.9134 58.0625 61.1875C58.0625 59.7313 57.0666 58.5078 55.7188 58.1609V54.1562C55.7188 53.7248 55.3689 53.375 54.9375 53.375H49.4688V51.8125H54.9375C55.3689 51.8125 55.7188 51.4627 55.7188 51.0312V47.9062H54.1562V50.25H48.6875C48.2561 50.25 47.9062 50.5998 47.9062 51.0312V53.375H44.7812V50.1516C46.1291 49.8047 47.125 48.5812 47.125 47.125C47.125 45.3991 45.7259 44 44 44C42.2741 44 40.875 45.3991 40.875 47.125C40.875 48.5812 41.8709 49.8047 43.2188 50.1516V51.8149L38.5312 51.8297V46.3438C38.5324 46.1365 38.4513 45.9372 38.3055 45.7898C38.1568 45.6448 37.9576 45.5633 37.75 45.5625L33.8359 45.582L33.8438 47.1445L36.9688 47.1289V52.6133C36.9688 53.0447 37.3186 53.3945 37.75 53.3945L43.2188 53.3774V59.625H40.0938V58.0625H38.5312V60.4062C38.5312 60.8377 38.8811 61.1875 39.3125 61.1875H43.2188V62.75H33.8438V59.5266C35.1916 59.1797 36.1875 57.9562 36.1875 56.5C36.1875 54.7741 34.7884 53.375 33.0625 53.375C31.3366 53.375 29.9375 54.7741 29.9375 56.5C29.9375 57.9562 30.9334 59.1797 32.2812 59.5266V63.5312C32.2812 63.9627 32.6311 64.3125 33.0625 64.3125H43.2188V67.4375H23.6875C23.2561 67.4375 22.9062 67.0877 22.9062 66.6562V41.6562H25.25V61.1875H26.8125V41.6562H61.1875V61.1875H62.75V41.6562H65.0938V66.6562ZM54.9375 59.625C55.8005 59.625 56.5 60.3245 56.5 61.1875C56.5 62.0505 55.8005 62.75 54.9375 62.75C54.0745 62.75 53.375 62.0505 53.375 61.1875C53.375 60.3245 54.0745 59.625 54.9375 59.625ZM33.0625 58.0625C32.1995 58.0625 31.5 57.363 31.5 56.5C31.5 55.637 32.1995 54.9375 33.0625 54.9375C33.9255 54.9375 34.625 55.637 34.625 56.5C34.625 57.363 33.9255 58.0625 33.0625 58.0625Z" fill="url(#paint1_linear_3707_31)"/>
<path d="M26.8125 62.75H25.25V64.3125H26.8125V62.75Z" fill="url(#paint2_linear_3707_31)"/>
<path d="M62.75 62.75H61.1875V64.3125H62.75V62.75Z" fill="url(#paint3_linear_3707_31)"/>
<path d="M32.2812 45.5625H30.7188V47.125H32.2812V45.5625Z" fill="url(#paint4_linear_3707_31)"/>
<path d="M55.7188 44.7812H54.1562V46.3438H55.7188V44.7812Z" fill="url(#paint5_linear_3707_31)"/>
<path d="M49.4688 64.3125H47.9062V65.875H49.4688V64.3125Z" fill="url(#paint6_linear_3707_31)"/>
<path d="M40.0938 54.9375H38.5312V56.5H40.0938V54.9375Z" fill="url(#paint7_linear_3707_31)"/>
</g>
</g>
<defs>
<linearGradient id="paint0_linear_3707_31" x1="3.27827e-07" y1="44" x2="88.0004" y2="44" gradientUnits="userSpaceOnUse">
<stop stop-color="#874FFF"/>
<stop offset="0.515625" stop-color="#FF6068"/>
<stop offset="1" stop-color="#FEB14B"/>
</linearGradient>
<linearGradient id="paint1_linear_3707_31" x1="19" y1="44" x2="69" y2="44" gradientUnits="userSpaceOnUse">
<stop stop-color="#874FFF"/>
<stop offset="0.515625" stop-color="#FF6068"/>
<stop offset="1" stop-color="#FEB14B"/>
</linearGradient>
<linearGradient id="paint2_linear_3707_31" x1="25.25" y1="63.5313" x2="26.8125" y2="63.5313" gradientUnits="userSpaceOnUse">
<stop stop-color="#874FFF"/>
<stop offset="0.515625" stop-color="#FF6068"/>
<stop offset="1" stop-color="#FEB14B"/>
</linearGradient>
<linearGradient id="paint3_linear_3707_31" x1="61.1875" y1="63.5313" x2="62.75" y2="63.5313" gradientUnits="userSpaceOnUse">
<stop stop-color="#874FFF"/>
<stop offset="0.515625" stop-color="#FF6068"/>
<stop offset="1" stop-color="#FEB14B"/>
</linearGradient>
<linearGradient id="paint4_linear_3707_31" x1="30.7188" y1="46.3438" x2="32.2813" y2="46.3438" gradientUnits="userSpaceOnUse">
<stop stop-color="#874FFF"/>
<stop offset="0.515625" stop-color="#FF6068"/>
<stop offset="1" stop-color="#FEB14B"/>
</linearGradient>
<linearGradient id="paint5_linear_3707_31" x1="54.1563" y1="45.5625" x2="55.7188" y2="45.5625" gradientUnits="userSpaceOnUse">
<stop stop-color="#874FFF"/>
<stop offset="0.515625" stop-color="#FF6068"/>
<stop offset="1" stop-color="#FEB14B"/>
</linearGradient>
<linearGradient id="paint6_linear_3707_31" x1="47.9063" y1="65.0938" x2="49.4688" y2="65.0938" gradientUnits="userSpaceOnUse">
<stop stop-color="#874FFF"/>
<stop offset="0.515625" stop-color="#FF6068"/>
<stop offset="1" stop-color="#FEB14B"/>
</linearGradient>
<linearGradient id="paint7_linear_3707_31" x1="38.5313" y1="55.7188" x2="40.0938" y2="55.7188" gradientUnits="userSpaceOnUse">
<stop stop-color="#874FFF"/>
<stop offset="0.515625" stop-color="#FF6068"/>
<stop offset="1" stop-color="#FEB14B"/>
</linearGradient>
<clipPath id="clip0_3707_31">
<rect width="88" height="88" fill="white"/>
</clipPath>
<clipPath id="clip1_3707_31">
<rect width="50" height="50" fill="white" transform="translate(19 19)"/>
</clipPath>
</defs>
</svg>
