<svg width="88" height="88" viewBox="0 0 88 88" fill="none" xmlns="http://www.w3.org/2000/svg">
<g clip-path="url(#clip0_3709_123)">
<path d="M26.8726 84.5406C21.644 82.3321 16.8938 79.1295 12.8858 75.1105C8.86788 71.1024 5.66556 66.353 3.45593 61.1255C1.16316 55.7074 -0.0127133 49.8823 -0.000903842 43.999C-0.0132068 38.1155 1.16197 32.2901 3.45464 26.8716C5.66421 21.6436 8.86695 16.8937 12.885 12.8849C16.8934 8.86701 21.6435 5.66505 26.8717 3.45662C32.2899 1.16295 38.1153 -0.0130403 43.999 -0.000883261C49.8821 -0.0129 55.707 1.16309 61.1246 3.45662C66.3523 5.66511 71.1018 8.86708 75.1096 12.8849C79.1285 16.893 82.3309 21.6431 84.5395 26.8716C86.8333 32.2898 88.01 38.1153 87.9989 43.999C88.0097 49.8822 86.833 55.707 84.5395 61.1247C82.3308 66.3527 79.1284 71.1022 75.1096 75.1096C71.1022 79.1285 66.3526 82.3311 61.1246 84.5397C55.7069 86.8331 49.8821 88.0097 43.999 87.999C38.1156 88.01 32.2906 86.8337 26.8726 84.5406ZM3.99862 43.999C4.01096 54.6039 8.22934 64.7709 15.7282 72.2696C23.2271 79.7683 33.3941 83.9863 43.999 83.9985C54.6039 83.9863 64.7709 79.7683 72.2698 72.2696C79.7687 64.7709 83.9871 54.6039 83.9994 43.999C83.9873 33.394 79.7691 23.2268 72.2702 15.7279C64.7713 8.22901 54.604 4.01083 43.999 3.99872C33.3939 4.0106 23.2267 8.22872 15.7278 15.7277C8.22883 23.2266 4.0105 33.3939 3.99862 43.999ZM60.4947 56.4651V52.9266C60.4947 51.0786 59.2301 49.536 57.361 48.3075C60.8986 48.729 65.9955 50.5251 65.9955 53.7151V56.4651H60.4947ZM31.1625 56.4651V53.7151C31.1625 49.4427 39.7056 47.2981 43.9956 47.2981C48.2856 47.2981 56.8295 49.4427 56.8295 53.7151V56.4651H31.1625ZM36.241 52.7982H51.751C49.3246 51.6463 46.6818 51.0213 43.9964 50.9642C41.3119 51.0219 38.67 51.6473 36.2445 52.799L36.241 52.7982ZM21.9991 56.466V53.716C21.9991 50.526 27.096 48.7299 30.6345 48.3084C28.7645 49.5404 27.4999 51.076 27.4999 52.9275V56.466H21.9991ZM53.6975 44.879C53.3557 44.6903 53.0413 44.4558 52.7629 44.1821C52.4842 43.9123 52.2382 43.6107 52.0299 43.2836C53.3656 41.5417 54.0875 39.4067 54.0829 37.2116V36.6994C54.6569 36.4321 55.2827 36.2943 55.9159 36.2955C57.1314 36.2955 58.2971 36.7784 59.1566 37.6379C60.0161 38.4974 60.499 39.6631 60.499 40.8786C60.4944 41.6946 60.2732 42.4947 59.8579 43.1971C59.4426 43.8996 58.848 44.4791 58.1353 44.8764C57.4579 45.258 56.6942 45.46 55.9168 45.4634C55.1393 45.4612 54.3753 45.26 53.6975 44.879ZM29.8636 44.879C29.1507 44.4818 28.556 43.9024 28.1406 43.1999C27.7251 42.4975 27.5037 41.6973 27.499 40.8812C27.499 39.6657 27.9819 38.5 28.8414 37.6405C29.7009 36.781 30.8666 36.2982 32.0821 36.2982C32.7156 36.297 33.3416 36.4349 33.916 36.7021V37.2143C33.9104 39.4095 34.6324 41.5448 35.969 43.2862C35.5501 43.9464 34.9762 44.4941 34.2971 44.8817C33.6198 45.2633 32.8561 45.4653 32.0786 45.4686C31.3022 45.464 30.5396 45.261 29.8636 44.879ZM37.5829 37.2151C37.5832 35.5135 38.2592 33.8817 39.4624 32.6785C40.6656 31.4753 42.2974 30.7993 43.999 30.7991C45.7007 30.7993 47.3328 31.4755 48.5361 32.6789C49.7393 33.8822 50.4151 35.5143 50.4151 37.216C50.4152 38.0586 50.2494 38.8931 49.927 39.6716C49.6046 40.4501 49.1319 41.1575 48.5361 41.7534C47.9403 42.3493 47.2332 42.822 46.4547 43.1445C45.6762 43.467 44.8417 43.633 43.999 43.633C43.1563 43.633 42.3219 43.4669 41.5433 43.1444C40.7648 42.8218 40.0573 42.3491 39.4615 41.7531C38.8657 41.1571 38.393 40.4496 38.0706 39.671C37.7483 38.8924 37.5827 38.0578 37.5829 37.2151ZM41.2499 37.2151C41.2499 37.9445 41.5398 38.6439 42.0555 39.1597C42.5713 39.6754 43.2705 39.9651 43.9999 39.9651C44.361 39.9651 44.7186 39.894 45.0522 39.7558C45.3858 39.6176 45.6889 39.415 45.9442 39.1596C46.1995 38.9042 46.4021 38.6011 46.5402 38.2674C46.6783 37.9338 46.7491 37.5762 46.749 37.2151C46.7491 36.854 46.6783 36.4965 46.5402 36.1628C46.4021 35.8292 46.1995 35.526 45.9442 35.2706C45.6889 35.0153 45.3858 34.8127 45.0522 34.6745C44.7186 34.5363 44.361 34.4651 43.9999 34.4651C43.6387 34.465 43.2809 34.5361 42.9471 34.6742C42.6134 34.8124 42.3101 35.0149 42.0547 35.2703C41.7992 35.5256 41.5965 35.8288 41.4583 36.1625C41.32 36.4962 41.2499 36.8539 41.2499 37.2151Z" fill="url(#paint0_linear_3709_123)"/>
</g>
<defs>
<linearGradient id="paint0_linear_3709_123" x1="-0.000999123" y1="43.999" x2="87.999" y2="43.999" gradientUnits="userSpaceOnUse">
<stop stop-color="#874FFF"/>
<stop offset="0.515625" stop-color="#FF6068"/>
<stop offset="1" stop-color="#FEB14B"/>
</linearGradient>
<clipPath id="clip0_3709_123">
<rect width="88" height="88" fill="white"/>
</clipPath>
</defs>
</svg>
