<svg width="50" height="45" viewBox="0 0 50 45" fill="none" xmlns="http://www.w3.org/2000/svg">
<path fill-rule="evenodd" clip-rule="evenodd" d="M44.7224 0.578302C43.7539 0.913128 33.9366 4.26941 22.9061 8.03669C11.8756 11.8039 2.53346 15.0047 2.14575 15.1494C1.26694 15.4774 0.655001 16.019 0.288135 16.7935C-0.0803953 17.5715 -0.0976136 18.75 0.249198 19.4525C0.533593 20.0283 1.08125 20.6299 1.54898 20.8802C1.74768 20.9866 4.31819 22.1682 7.26115 23.506C10.2041 24.8438 12.6269 25.9538 12.6452 25.9727C12.6634 25.9917 13.4257 29.6023 14.3391 33.9964C15.2526 38.3905 16.0791 42.1527 16.1757 42.357C16.5516 43.1513 17.4382 43.411 18.2102 42.9528C18.4254 42.8251 20.4593 41.2751 22.7299 39.5083L26.8583 36.296L31.6325 40.3468C34.2584 42.5748 36.621 44.519 36.8827 44.6674C37.5127 45.0245 38.3694 45.0996 39.1453 44.8657C39.9365 44.6273 40.8416 43.7007 41.0817 42.8832C41.1718 42.5764 43.2324 33.5616 45.6607 22.8504C50.5071 1.47374 50.2508 2.8022 49.7325 1.74619C49.2062 0.673749 48.3246 0.076619 47.1682 0.00936964C46.5399 -0.0271459 46.3381 0.0198173 44.7224 0.578302ZM47.0723 3.29942C47.0347 3.45288 45.0483 12.2019 42.6581 22.7417C40.2679 33.2815 38.291 41.927 38.2651 41.954C38.2391 41.9809 38.1406 41.9335 38.0461 41.8488C37.9516 41.764 34.5725 38.8972 30.5369 35.4779C26.5014 32.0586 23.1647 29.2294 23.1219 29.1906C23.0793 29.1519 26.4911 25.3869 30.7038 20.824C34.9166 16.2611 38.4622 12.3628 38.5831 12.161C38.7276 11.9197 38.8029 11.6342 38.8032 11.3256C38.8036 10.9259 38.7487 10.7925 38.4302 10.4205C38.0817 10.0133 38.018 9.98155 37.4764 9.94524L36.896 9.90629L25.3838 16.5431L13.8716 23.1798L8.38229 20.6907C5.36312 19.3217 2.92899 18.1643 2.97301 18.1186C3.0594 18.0291 46.7869 3.04563 47.0076 3.02991C47.1047 3.02301 47.1221 3.09554 47.0723 3.29942ZM29.4119 17.7703C29.4119 17.7934 27.2274 20.1784 24.5575 23.0701C21.8876 25.9618 19.6433 28.4647 19.5703 28.632C19.4972 28.7994 19.0558 30.3285 18.5893 32.03C18.1228 33.7315 17.7119 35.1586 17.676 35.2012C17.6172 35.2711 15.6927 26.246 15.6743 25.8138C15.6685 25.6768 17.3307 24.673 22.5148 21.6828C26.2813 19.5104 29.374 17.7318 29.3874 17.7304C29.4008 17.7292 29.4119 17.7471 29.4119 17.7703ZM23.2317 33.2232C23.8951 33.7836 24.437 34.2731 24.4361 34.3108C24.4334 34.418 20.17 37.7081 20.1413 37.6251C20.1272 37.5845 20.3821 36.5943 20.7075 35.4245C21.7623 31.6346 21.6747 31.8901 21.8613 32.057C21.9517 32.1378 22.5684 32.6626 23.2317 33.2232Z" fill="url(#paint0_linear_65_692)"/>
<defs>
<linearGradient id="paint0_linear_65_692" x1="1.86264e-07" y1="22.5" x2="50" y2="22.5" gradientUnits="userSpaceOnUse">
<stop stop-color="#874FFF"/>
<stop offset="0.515625" stop-color="#FF6068"/>
<stop offset="1" stop-color="#FEB14B"/>
</linearGradient>
</defs>
</svg>
