<svg width="88" height="88" viewBox="0 0 88 88" fill="none" xmlns="http://www.w3.org/2000/svg">
<g clip-path="url(#clip0_3705_2)">
<path d="M44.0803 88H43.9202C38.0622 88.0059 32.2634 86.8301 26.8704 84.543C21.6404 82.338 16.8898 79.1353 12.885 75.1133C8.86159 71.1085 5.6587 66.3568 3.45533 61.125C1.15591 55.7095 -0.0196034 49.8834 0.000247277 44C-0.0180992 38.1156 1.158 32.2887 3.45728 26.8721C5.66058 21.6412 8.8635 16.8903 12.887 12.8867C16.8902 8.86242 21.6416 5.65939 26.8733 3.45706C32.2581 1.1695 38.05 -0.00639244 43.9006 2.61355e-05H44.0999C49.9494 -0.00585075 55.7403 1.17003 61.1243 3.45706C66.3552 5.66036 71.106 8.86328 75.1096 12.8867C79.1332 16.8907 82.3366 21.6414 84.5413 26.8721C86.8405 32.2888 88.0172 38.1155 88.0002 44C88.0175 49.8835 86.8411 55.7093 84.5422 61.125C82.3366 66.3552 79.1333 71.1057 75.1106 75.1104C71.107 79.1338 66.3562 82.3368 61.1252 84.5401C55.7346 86.8296 49.937 88.0065 44.0803 88ZM44.0002 4.00003C33.401 4.03063 23.2451 8.25519 15.7502 15.75C8.25542 23.2449 4.03085 33.4008 4.00025 44C4.02954 54.5997 8.25318 64.7569 15.7483 72.252C23.2434 79.7471 33.4006 83.9707 44.0002 84C54.6003 83.972 64.7578 79.7484 72.2532 72.253C79.7486 64.7576 83.9723 54.6001 84.0002 44C83.971 33.4004 79.7473 23.2432 72.2522 15.7481C64.7571 8.25296 54.5999 4.02932 44.0002 4.00003Z" fill="url(#paint0_linear_3705_2)"/>
<path d="M66.8586 43.4107C69.4113 38.6498 69.9325 33.8848 67.8048 30.1999C65.6767 26.5146 61.3201 24.5959 55.9425 24.4155C55.5519 23.773 55.129 23.1503 54.6757 22.5502C55.1435 21.9425 55.3987 21.1972 55.4019 20.4302C55.4047 18.4816 53.8277 16.8993 51.8791 16.8965C50.924 16.8949 50.0086 17.281 49.343 17.9664C47.9552 17.2742 46.4276 16.9082 44.8769 16.8969C40.5939 16.8969 36.7044 19.7658 33.8488 24.4119C28.434 24.5745 24.0338 26.5065 21.9016 30.1995C19.7694 33.8929 20.2983 38.6477 22.8502 43.4091C20.642 47.4838 19.9494 51.5666 21.1402 55.0037C19.7431 56.3595 19.71 58.5915 21.0658 59.9886C22.2805 61.2397 24.2267 61.4152 25.6452 60.4018C28.1821 61.7928 31.0316 62.5142 33.9248 62.4984C36.7707 67.0742 40.6291 69.8966 44.8781 69.8966C49.1267 69.8966 52.9657 67.0875 55.8091 62.5304C57.0557 62.4988 58.2971 62.3577 59.5191 62.109C60.5935 63.7378 62.7851 64.1874 64.4143 63.1131C65.4005 62.4624 65.9965 61.3614 66.0018 60.1798C65.9981 59.8196 65.9387 59.4621 65.8255 59.12C66.6103 58.4221 67.2791 57.6037 67.8076 56.6959C69.8945 53.0797 69.55 48.377 66.8586 43.4107ZM66.2747 31.083C67.9771 34.0316 67.6879 37.8079 65.8234 41.6946C64.1502 39.1528 62.1405 36.8496 59.8495 34.8468C59.2631 31.8379 58.2781 28.9205 56.9203 26.1717C61.1887 26.5125 64.5804 28.1486 66.2747 31.083ZM54.8718 60.7654C52.4056 60.7092 49.9556 60.3493 47.5772 59.6938C49.3612 58.9639 51.0947 58.1152 52.7659 57.1544C54.4448 56.1852 56.0578 55.1047 57.5935 53.9212C56.9724 56.3065 56.0586 58.6053 54.8718 60.7654ZM51.8828 55.6247C49.6467 56.9159 47.2957 57.9975 44.8603 58.8548C42.4192 57.9995 40.0634 56.9179 37.8236 55.6247C35.5968 54.3429 33.4921 52.8597 31.5363 51.1938C30.5864 46.0924 30.5763 40.8608 31.5059 35.7558C33.4663 34.0672 35.5819 32.5666 37.8236 31.2747C40.0622 29.9775 42.4155 28.8906 44.8542 28.0269C49.7518 29.7652 54.2875 32.3895 58.2357 35.7691C58.7023 38.2846 58.9364 40.8382 58.9352 43.3965C58.94 45.9966 58.7035 48.5917 58.2284 51.1477C56.2563 52.8326 54.1326 54.3316 51.8844 55.6247H51.8828ZM32.1703 53.964C33.6887 55.131 35.2818 56.1965 36.9401 57.1544C38.6073 58.114 40.3347 58.9652 42.1115 59.7019C39.752 60.3493 37.3226 60.7051 34.8767 60.7621C33.6988 58.6158 32.7898 56.3324 32.1703 53.964ZM29.4494 49.2674C27.6884 47.5404 26.1474 45.6027 24.8615 43.4984C26.1393 41.3828 27.6726 39.433 29.4267 37.6922C28.9209 41.5333 28.929 45.4248 29.4494 49.2638V49.2674ZM34.8379 26.109C37.3089 26.1644 39.7637 26.5259 42.1458 27.1858C40.3573 27.9238 38.6198 28.7794 36.9446 29.7474C35.2746 30.7114 33.6697 31.783 32.1392 32.9556C32.7534 30.5715 33.6591 28.2719 34.8362 26.109H34.8379ZM57.6101 32.992C56.0699 31.8044 54.4533 30.7199 52.7703 29.7446C51.0947 28.7765 49.3563 27.9209 47.5675 27.183C49.9572 26.5206 52.4198 26.1587 54.8993 26.1054C56.0829 28.2808 56.9935 30.5937 57.6101 32.992ZM60.331 37.7238C62.073 39.4484 63.5954 41.382 64.8623 43.4806C63.5877 45.5736 62.0605 47.502 60.3149 49.2221C60.5737 47.2909 60.7026 45.3447 60.7018 43.3965C60.7006 41.4997 60.5757 39.6049 60.3282 37.7238H60.331ZM51.8686 18.6631C52.8443 18.6631 53.6353 19.4541 53.6353 20.4298C53.6353 21.4055 52.8443 22.1964 51.8686 22.1964C50.8929 22.1964 50.102 21.4055 50.102 20.4298C50.102 19.4541 50.8929 18.6631 51.8686 18.6631ZM44.8769 18.6631C46.1231 18.6745 47.3515 18.9636 48.472 19.5086C48.3855 19.8083 48.3394 20.1184 48.3353 20.4302C48.3289 22.3751 49.9006 23.957 51.8456 23.9635C52.3454 23.9651 52.8399 23.8604 53.296 23.6562C53.4865 23.9081 53.6721 24.1665 53.8532 24.4317C50.789 24.6048 47.7624 25.1923 44.8558 26.1789C41.9517 25.1923 38.9275 24.6044 35.8653 24.4317C38.3077 20.8337 41.4503 18.6631 44.8769 18.6631ZM23.4357 31.083C25.1397 28.1308 28.5634 26.4952 32.8682 26.1672C31.5023 28.8926 30.5092 31.7894 29.916 34.7797C27.6002 36.795 25.5687 39.1156 23.8773 41.6776C22.0233 37.7974 21.7354 34.0271 23.4357 31.083ZM23.6019 59.2967C22.6262 59.2967 21.8353 58.5058 21.8353 57.5301C21.8353 56.5544 22.6262 55.7634 23.6019 55.7634C24.5777 55.7634 25.3686 56.5544 25.3686 57.5301C25.3686 58.5058 24.5777 59.2967 23.6019 59.2967ZM26.7944 59.0201C27.0163 58.5547 27.1328 58.0456 27.1352 57.5301C27.1352 55.5786 25.5534 53.9964 23.6019 53.9964C23.2995 54.0004 22.9986 54.0437 22.7071 54.1254C21.9174 51.5072 22.4095 48.4094 23.9307 45.2356C25.614 47.7919 27.6342 50.1097 29.937 52.1258C30.5387 55.1076 31.5395 57.9951 32.9123 60.71C30.7745 60.598 28.6867 60.0213 26.7944 59.0201ZM44.8769 68.1299C41.4807 68.1299 38.3614 65.9994 35.9288 62.4588C38.955 62.272 41.9428 61.6853 44.815 60.7144C47.7138 61.716 50.7364 62.3157 53.7978 62.4968C51.3692 66.0151 48.2609 68.1299 44.8769 68.1299ZM62.4685 61.9465C61.4928 61.9465 60.7018 61.1556 60.7018 60.1798C60.7018 59.2041 61.4928 58.4132 62.4685 58.4132C63.4442 58.4132 64.2351 59.2041 64.2351 60.1798C64.2351 61.1556 63.4442 61.9465 62.4685 61.9465ZM66.2747 55.8164C65.8861 56.4711 65.4074 57.0675 64.8526 57.5891C63.4292 56.2652 61.2016 56.3457 59.8778 57.7691C59.2688 58.4241 58.932 59.2858 58.9352 60.1798C58.9352 60.2627 58.9538 60.3408 58.9599 60.4221C58.2619 60.5543 57.5563 60.6469 56.8479 60.6982C58.2247 57.9708 59.2267 55.0696 59.8264 52.0733C62.1151 50.0636 64.1227 47.7551 65.7959 45.2101C67.734 49.248 67.916 52.973 66.2747 55.8164Z" fill="url(#paint1_linear_3705_2)"/>
<path d="M44.8021 34.5632C39.9235 34.5632 35.9684 38.5179 35.9684 43.3964C35.9684 48.275 39.9235 52.2297 44.8021 52.2297C49.6802 52.2297 53.6353 48.275 53.6353 43.3964C53.63 38.5203 49.6782 34.5685 44.8021 34.5632ZM44.8021 50.463C40.8992 50.463 37.7351 47.2993 37.7351 43.3964C37.7351 39.4936 40.8992 36.3299 44.8021 36.3299C48.7045 36.3299 51.8686 39.4936 51.8686 43.3964C51.8642 47.2977 48.7029 50.459 44.8021 50.463Z" fill="url(#paint2_linear_3705_2)"/>
</g>
<defs>
<linearGradient id="paint0_linear_3705_2" x1="3.27827e-07" y1="44" x2="88.0004" y2="44" gradientUnits="userSpaceOnUse">
<stop stop-color="#874FFF"/>
<stop offset="0.515625" stop-color="#FF6068"/>
<stop offset="1" stop-color="#FEB14B"/>
</linearGradient>
<linearGradient id="paint1_linear_3705_2" x1="20.0703" y1="43.3965" x2="69.1577" y2="43.3965" gradientUnits="userSpaceOnUse">
<stop stop-color="#874FFF"/>
<stop offset="0.515625" stop-color="#FF6068"/>
<stop offset="1" stop-color="#FEB14B"/>
</linearGradient>
<linearGradient id="paint2_linear_3705_2" x1="35.9684" y1="43.3965" x2="53.6353" y2="43.3965" gradientUnits="userSpaceOnUse">
<stop stop-color="#874FFF"/>
<stop offset="0.515625" stop-color="#FF6068"/>
<stop offset="1" stop-color="#FEB14B"/>
</linearGradient>
<clipPath id="clip0_3705_2">
<rect width="88" height="88" fill="white"/>
</clipPath>
</defs>
</svg>
